<svg xmlns="http://www.w3.org/2000/svg" width="111.071" height="30.398" viewBox="0 0 111.071 30.398">
  <g id="Grupo_801" data-name="Grupo 801" transform="translate(-971.03 -879.246)">
    <g id="Grupo_16" data-name="Grupo 16" transform="translate(1004.381 883.893)">
      <path id="Trazado_26" data-name="Trazado 26" d="M1049.669,909.236c0,3.794,2.752,7.214,7.668,7.214a8.28,8.28,0,0,0,5.9-2.271l-1.683-3.233a6.717,6.717,0,0,1-3.767,1.657,3.325,3.325,0,0,1-3.446-3.2c0-.074,0-.147,0-.221a3.164,3.164,0,0,1,3.037-3.286q.125-.005.25,0a5.015,5.015,0,0,1,3.233,1.336l1.951-3.1a7.254,7.254,0,0,0-5.478-2.084C1052.394,902.049,1049.669,905.549,1049.669,909.236Z" transform="translate(-1049.669 -897.025)" fill="#fff"/>
      <path id="Trazado_27" data-name="Trazado 27" d="M1085.2,909.307h4.623v-6.092a5.32,5.32,0,0,1,.24-1.763,2.776,2.776,0,0,1,2.752-2.031c1.015,0,1.523.534,1.523,1.817v8.069h4.623v-8.924c0-3.874-2.163-5.157-4.943-5.157a4.726,4.726,0,0,0-4.195,2.191h-.053s.053-.481.053-1.176V890.2H1085.2Z" transform="translate(-1070.132 -890.204)" fill="#fff"/>
      <rect id="Rect치ngulo_5" data-name="Rect치ngulo 5" width="4.515" height="3.607" transform="translate(31.447)" fill="#fff"/>
      <rect id="Rect치ngulo_6" data-name="Rect치ngulo 6" width="4.623" height="13.76" transform="translate(31.394 5.344)" fill="#fff"/>
      <path id="Trazado_28" data-name="Trazado 28" d="M1145.225,902.048a10.408,10.408,0,0,0-5.772,1.79l1.6,3.26a8.212,8.212,0,0,1,3.714-1.309c1.149,0,2.031.374,2.031,1.523v.24h-.187c-2.138,0-7.989.454-7.989,4.463a4.4,4.4,0,0,0,4.676,4.435,4.287,4.287,0,0,0,3.9-2h.053a7.174,7.174,0,0,0-.053.855v.827h4.221v-8.47C1151.424,904.159,1149.1,902.048,1145.225,902.048Zm1.63,8.444a2.552,2.552,0,0,1-2.271,2.431c-.91,0-1.31-.508-1.31-1.149h0c0-1.148,1.683-1.576,3.153-1.576h.428Z" transform="translate(-1100.899 -897.025)" fill="#fff"/>
      <path id="Trazado_29" data-name="Trazado 29" d="M1174.03,906.447c0,4.623,4.248,5.21,6.439,5.21a8.89,8.89,0,0,0,1.256-.08v-4.008s-.24.027-.615.027c-.882,0-2.46-.212-2.46-1.763v-4.221h2.884v-3.6h-2.884v-3.957h-4.487V898h-1.9v3.6h1.763Z" transform="translate(-1120.274 -892.418)" fill="#15e092"/>
      <path id="Trazado_30" data-name="Trazado 30" d="M1199.356,909.309h4.623v-5.344h1.442l2.913,5.344h5.261L1209,901.855V901.8l4.035-6.252h-5.023l-2.725,4.542h-1.309v-9.886h-4.623Z" transform="translate(-1135.874 -890.206)" fill="#15e092"/>
    </g>
    <g id="Group_1" data-name="Group 1" transform="translate(971.03 879.246)">
      <path id="Path_18" data-name="Path 18" d="M986.22,879.26c2.312,0,4.623-.018,6.936.007a9.9,9.9,0,0,1,4.042.681,6.652,6.652,0,0,1,4.065,5.6,25.294,25.294,0,0,1,.16,2.966c.017,4.032.033,8.065-.01,12.1a17.983,17.983,0,0,1-.359,3.767,6.641,6.641,0,0,1-5.992,5.11,26.048,26.048,0,0,1-2.636.146c-4.156.015-8.312.028-12.468-.007a18.825,18.825,0,0,1-3.444-.308,6.622,6.622,0,0,1-5.29-5.733,22.964,22.964,0,0,1-.175-2.8c-.019-4.266-.031-8.533,0-12.8a16.331,16.331,0,0,1,.312-3.359,6.619,6.619,0,0,1,5.7-5.18,21.169,21.169,0,0,1,2.672-.184c2.16-.025,4.321-.008,6.482-.008Z" transform="translate(-971.03 -879.246)" fill="#15e092"/>
      <g id="Group_8" data-name="Group 8" transform="translate(2.603 5.301)">
        <path id="Path_21" data-name="Path 21" d="M994.732,898.079a15.835,15.835,0,0,0,5.284.2l3.336-4.6a11.422,11.422,0,0,0-3.407-1.407,15.984,15.984,0,0,0-3.958-.521,10.244,10.244,0,0,0-7.305,2.7,8.81,8.81,0,0,0-2.786,5.464A12.109,12.109,0,0,1,994.732,898.079Z" transform="translate(-982.195 -891.745)" fill="#fff"/>
        <path id="Path_22" data-name="Path 22" d="M993.871,918.4c-2.923.017-4.135-1.1-7.6-.865a8.786,8.786,0,0,0,2.514,4.4,10.174,10.174,0,0,0,7.419,2.689,15.884,15.884,0,0,0,3.892-.515,12.868,12.868,0,0,0,3.473-1.377l-4.479-6.649A6.431,6.431,0,0,1,993.871,918.4Z" transform="translate(-982.411 -905.759)" fill="#112b38"/>
        <path id="Path_23" data-name="Path 23" d="M985.9,908.79h0c5.732-1.145,6.828.315,10.723.848a8.079,8.079,0,0,0,6.822-2.471,6.594,6.594,0,0,1-4.342,1.259h-.016a18.753,18.753,0,0,1-4.225-.686,12.107,12.107,0,0,0-8.962,1.052h0Z" transform="translate(-982.195 -900.627)" fill="#fff"/>
        <path id="Path_24" data-name="Path 24" d="M983.837,915.305c-3.029-.52-6.668,1.3-6.668,1.3a22.543,22.543,0,0,1,3.712-.388h0c3.538-.036,4.671,1.175,7.612,1.345a6.431,6.431,0,0,0,5.355-1.987C990.259,917.729,987.315,915.9,983.837,915.305Z" transform="translate(-977.169 -905.26)" fill="#112b38"/>
      </g>
    </g>
  </g>
</svg>
