<?xml version="1.0" encoding="UTF-8" standalone="no"?>
<svg
   xmlns:dc="http://purl.org/dc/elements/1.1/"
   xmlns:cc="http://creativecommons.org/ns#"
   xmlns:rdf="http://www.w3.org/1999/02/22-rdf-syntax-ns#"
   xmlns:svg="http://www.w3.org/2000/svg"
   xmlns="http://www.w3.org/2000/svg"
   xmlns:sodipodi="http://sodipodi.sourceforge.net/DTD/sodipodi-0.dtd"
   xmlns:inkscape="http://www.inkscape.org/namespaces/inkscape"
   width="20"
   height="20"
   viewBox="0 0 20 20"
   version="1.1"
   id="svg5"
   sodipodi:docname="profile_politicas.svg"
   inkscape:version="1.0.2-2 (e86c870879, 2021-01-15)">
  <metadata
     id="metadata11">
    <rdf:RDF>
      <cc:Work
         rdf:about="">
        <dc:format>image/svg+xml</dc:format>
        <dc:type
           rdf:resource="http://purl.org/dc/dcmitype/StillImage" />
      </cc:Work>
    </rdf:RDF>
  </metadata>
  <defs
     id="defs9" />
  <sodipodi:namedview
     pagecolor="#ffffff"
     bordercolor="#666666"
     borderopacity="1"
     objecttolerance="10"
     gridtolerance="10"
     guidetolerance="10"
     inkscape:pageopacity="0"
     inkscape:pageshadow="2"
     inkscape:window-width="1920"
     inkscape:window-height="1017"
     id="namedview7"
     showgrid="false"
     inkscape:zoom="42.5"
     inkscape:cx="10"
     inkscape:cy="10"
     inkscape:window-x="-8"
     inkscape:window-y="-8"
     inkscape:window-maximized="1"
     inkscape:current-layer="icon" />
  <g
     id="icon"
     transform="translate(-18 -516)">
    <rect
       id="bg"
       width="20"
       height="20"
       transform="translate(18 516)"
       fill="rgba(255,96,96,0)"
       style="opacity:0" />
    <path
       id="path"
       d="M10,18a8,8,0,1,1,8-8A8,8,0,0,1,10,18Zm0-1.455A6.545,6.545,0,1,0,3.455,10,6.546,6.546,0,0,0,10,16.545Zm0-9.455a.727.727,0,1,1,.727-.727A.727.727,0,0,1,10,7.091ZM9.273,8.909a.727.727,0,0,1,1.455,0v4.727a.727.727,0,1,1-1.455,0Z"
       transform="translate(18 516)"
       fill="#fff" />
  </g>
</svg>
