<svg xmlns="http://www.w3.org/2000/svg" xmlns:xlink="http://www.w3.org/1999/xlink" width="50.525" height="119.441" viewBox="0 0 50.525 119.441">
  <defs>
    <clipPath id="clip-path">
      <path id="Trazado_973" data-name="Trazado 973" d="M673.423,410.439l0,0a2.272,2.272,0,0,0-2.162.261l-.686.4a6.99,6.99,0,0,0-3.163,5.478v2.508s3.381,1.973,3.491,1.995,6.1-8.588,6.1-8.588Z" transform="translate(-667.409 -410.272)" fill="#b6cee6"/>
    </clipPath>
    <clipPath id="clip-path-2">
      <path id="Trazado_990" data-name="Trazado 990" d="M437.695,1132.554l11.053-6.381a7.439,7.439,0,0,1,6.342-.17l3.44-1.292,1.58,2.37.494,2.847a1.623,1.623,0,0,1,.043.245l.012.067-.007,0a2.3,2.3,0,0,1-1.377,2.007l-11.053,6.381a7.367,7.367,0,0,1-6.667,0l-3.86-2.229C435.854,1135.341,435.854,1133.617,437.695,1132.554Z" transform="translate(-436.314 -1124.71)" fill="none"/>
    </clipPath>
    <clipPath id="clip-path-3">
      <path id="Trazado_997" data-name="Trazado 997" d="M620.361,1025.221l11.053-6.381a7.439,7.439,0,0,1,6.342-.17l3.44-1.292,1.58,2.37.494,2.847a1.635,1.635,0,0,1,.043.245l.012.067-.007,0a2.3,2.3,0,0,1-1.377,2.007l-11.053,6.381a7.368,7.368,0,0,1-6.667,0l-3.86-2.228C618.52,1028.007,618.52,1026.284,620.361,1025.221Z" transform="translate(-618.98 -1017.377)" fill="none"/>
    </clipPath>
    <clipPath id="clip-path-4">
      <path id="Trazado_1012" data-name="Trazado 1012" d="M485.79,771.815l3.228-1.864v-4.872l10.5-1.044-1.238,7.64-12.14,7.009-6.125-3.536-2.348-8.023Z" transform="translate(-477.668 -764.036)" fill="none"/>
    </clipPath>
    <clipPath id="clip-path-5">
      <path id="Trazado_1060" data-name="Trazado 1060" d="M378.4,552.932l0,0a2.272,2.272,0,0,0-2.162.261l-.686.4a6.99,6.99,0,0,0-3.163,5.478v2.508s3.381,1.973,3.491,1.995,6.1-8.588,6.1-8.588Z" transform="translate(-372.39 -552.766)" fill="#b6cee6"/>
    </clipPath>
  </defs>
  <g id="Grupo_284" data-name="Grupo 284" transform="translate(0)">
    <g id="Grupo_283" data-name="Grupo 283" transform="translate(0 0)">
      <g id="Grupo_247" data-name="Grupo 247" transform="translate(5.2 34.822)">
        <ellipse id="Elipse_34" data-name="Elipse 34" cx="2.033" cy="3.521" rx="2.033" ry="3.521" transform="matrix(-0.866, -0.5, 0.5, -0.866, 7.679, 19.136)" fill="#374e5a"/>
        <ellipse id="Elipse_35" data-name="Elipse 35" cx="2.033" cy="3.521" rx="2.033" ry="3.521" transform="matrix(-0.866, -0.5, 0.5, -0.866, 8.892, 19.84)" fill="#2b3438"/>
        <path id="Trazado_963" data-name="Trazado 963" d="M676.191,754.913l-.9-.508-1.733,1.3.978.841Z" transform="translate(-662.386 -720.735)" fill="#4c585c"/>
        <path id="Trazado_964" data-name="Trazado 964" d="M721.635,736.547l-.278.211,1.667.724-.206,2.134-1.779,4.111-3.506,2.141.406.733,3.353-1,4.04-3.832,1.7-7.906Z" transform="translate(-717.533 -702.206)" fill="#4c585c"/>
        <path id="Trazado_965" data-name="Trazado 965" d="M718.255,702.852s.968,2.189,4.5,2.591l1.927-4.35-1.428-3.931h-.411Z" transform="translate(-715.249 -669.094)" fill="#b6cee6"/>
        <path id="Trazado_966" data-name="Trazado 966" d="M709.441,553.66l3.048-2.244,1.3-.044A37.43,37.43,0,0,1,713.975,562c-.8,4.95-2.324,7.018-2.324,7.018l-4.915,2.31s1.753-9.2.038-12.3Z" transform="translate(-703.729 -537.567)" fill="#b6cee6"/>
        <path id="Trazado_967" data-name="Trazado 967" d="M710.3,589.029l4.5,2.591,2.667-5.368-4.993-1.626Z" transform="translate(-707.255 -567.568)" fill="#e0f0ff"/>
        <path id="Trazado_968" data-name="Trazado 968" d="M694.918,521.979l3.071,1.8,1.6-4.679-.147-3.682-2.171,2.567Z" transform="translate(-687.874 -505.128)" fill="#2b3438"/>
        <path id="Trazado_969" data-name="Trazado 969" d="M708.215,454.779l-3.734,2.156.571-12.122,2.591-1.5Z" transform="translate(-697.436 -440.084)" fill="#2b3438"/>
        <g id="Grupo_246" data-name="Grupo 246" transform="translate(3.403)">
          <path id="Trazado_970" data-name="Trazado 970" d="M678.981,471.719l-3.734,2.156.571-12.122,2.591-1.5Z" transform="translate(-668.745 -455.367)" fill="#4c585c"/>
          <g id="Grupo_245" data-name="Grupo 245" transform="translate(1.411)">
            <path id="Trazado_971" data-name="Trazado 971" d="M673.423,410.439l0,0a2.272,2.272,0,0,0-2.162.261l-.686.4a6.99,6.99,0,0,0-3.163,5.478v2.508s3.381,1.973,3.491,1.995,6.1-8.588,6.1-8.588Z" transform="translate(-667.409 -410.272)" fill="#b6cee6"/>
            <g id="Grupo_244" data-name="Grupo 244" clip-path="url(#clip-path)">
              <path id="Trazado_972" data-name="Trazado 972" d="M623.453,372.379l-17.884-10.326,4.674-2.7,17.884,10.326Z" transform="translate(-612.484 -364.336)" fill="#e2effa"/>
            </g>
          </g>
          <path id="Trazado_974" data-name="Trazado 974" d="M665.123,435.424v-2.508c0-2.017-1.416-2.834-3.163-1.826l-.686.4a6.99,6.99,0,0,0-3.162,5.478v2.508Z" transform="translate(-653.211 -428.664)" fill="#d1e4f5"/>
          <path id="Trazado_975" data-name="Trazado 975" d="M663.467,580.145l3.048-2.244,1.3-.044A37.43,37.43,0,0,1,668,588.483c-.8,4.95-2.324,7.018-2.324,7.018l-4.915,2.31s1.753-9.2.038-12.3Z" transform="translate(-656.66 -561.461)" fill="#d1e4f5"/>
          <path id="Trazado_976" data-name="Trazado 976" d="M760.636,796.742l1.779-4.111Z" transform="translate(-760.533 -755.222)" fill="#384347"/>
          <path id="Trazado_977" data-name="Trazado 977" d="M718.44,792.631l4.3,2.518-1.779,4.111-4.3-2.518Z" transform="translate(-716.558 -755.221)" fill="#384347"/>
          <path id="Trazado_978" data-name="Trazado 978" d="M686.855,757.085l-2.7,2.057-1.042,2.1.406,1.173,2.744-2.581,1.778.323-1.779,4.111-3.506,2.141.406.733,3.353-1,4.04-3.832,1.7-7.906Z" transform="translate(-682.753 -720.735)" fill="#4c585c"/>
          <path id="Trazado_979" data-name="Trazado 979" d="M677.66,762.282l-2.7,2.057-1.042,2.1.406,1.173,2.744-2.581,1.778.323-1.779,4.111-3.506,2.141.407.733,3.353-1,4.04-3.832,1.7-7.906Z" transform="translate(-672.659 -725.424)" fill="#112b38"/>
        </g>
        <path id="Trazado_980" data-name="Trazado 980" d="M766.521,856.535l4.3,2.518.406.733-4.347-2.553Z" transform="translate(-766.521 -812.873)" fill="#112b38"/>
        <path id="Trazado_981" data-name="Trazado 981" d="M738.349,834.648l4.3,2.518-3.506,2.141-4.3-2.518Z" transform="translate(-734.843 -793.128)" fill="#374e5a"/>
        <path id="Trazado_982" data-name="Trazado 982" d="M757.43,802.825l.9.508-1.042,2.1-.9-.508Z" transform="translate(-752.629 -764.418)" fill="#3d4b4f"/>
        <path id="Trazado_983" data-name="Trazado 983" d="M764.185,825.944l-.406-1.173-.9-.508.407,1.173Z" transform="translate(-759.12 -783.758)" fill="#0b1c28"/>
        <ellipse id="Elipse_36" data-name="Elipse 36" cx="2.033" cy="3.521" rx="2.033" ry="3.521" transform="translate(11.727 21.522) rotate(-150)" fill="#2b3438"/>
        <ellipse id="Elipse_37" data-name="Elipse 37" cx="2.033" cy="3.521" rx="2.033" ry="3.521" transform="translate(12.94 22.226) rotate(-150)" fill="#4c585c"/>
      </g>
      <g id="Grupo_251" data-name="Grupo 251" transform="translate(17.872 101.895)">
        <path id="Trazado_984" data-name="Trazado 984" d="M448.537,1124.71l1.58,2.37.549,3.16-9.59,4.1-4.762-2.655,4.455-4.06Z" transform="translate(-426.321 -1121.883)" fill="#cde4f7"/>
        <g id="Grupo_248" data-name="Grupo 248" transform="translate(0)">
          <path id="Trazado_985" data-name="Trazado 985" d="M437.73,1142.542l3.86,2.229a7.368,7.368,0,0,0,6.667,0l11.053-6.381c1.841-1.063,1.841-2.786,0-3.849l-3.86-2.228a7.368,7.368,0,0,0-6.667,0l-11.053,6.381C435.889,1139.755,435.889,1141.479,437.73,1142.542Z" transform="translate(-436.349 -1128.022)" fill="#cde4f7"/>
          <path id="Trazado_986" data-name="Trazado 986" d="M530.8,1132.447l-5.384,5.735-1.99,3.043-6.144-3.628,2.194-2.933,5.413-5.318Z" transform="translate(-514.38 -1126.065)" fill="#b8d8f5"/>
          <path id="Trazado_987" data-name="Trazado 987" d="M458.785,1100.823l2.193,1.266a5.042,5.042,0,0,0,4.561,0l3.158-1.823a1.39,1.39,0,0,0,0-2.634l-2.193-1.266a5.041,5.041,0,0,0-4.561,0l-3.158,1.823A1.39,1.39,0,0,0,458.785,1100.823Z" transform="translate(-447.404 -1095.82)" fill="#e3f1ff"/>
        </g>
        <path id="Trazado_988" data-name="Trazado 988" d="M580.445,1187.218l-5.94-3.518-2.194,2.933,6.144,3.628Z" transform="translate(-569.406 -1175.101)" fill="#b2d2ed"/>
        <g id="Grupo_250" data-name="Grupo 250" transform="translate(0 2.827)">
          <g id="Grupo_249" data-name="Grupo 249" clip-path="url(#clip-path-2)">
            <path id="Trazado_989" data-name="Trazado 989" d="M379.852,1161.046s-3.95,2.429-4.038,2.458a7.772,7.772,0,0,1-1.639,1.96,21.742,21.742,0,0,1-5.354,2.633c-1.551.41-2.721,1.668-3.423,1.843a7.1,7.1,0,0,1-3.482-.322,23.936,23.936,0,0,1-4.769-2.867s-.439-.585.468-1.639,2.019-2.37,2.107-2.4-10.387,2.633-10.387,2.633l4.828,6.847s10.27,3.072,11.587,3.336,19.224-1.4,19.487-1.756,3.072-3.511,2.809-4.828a41.054,41.054,0,0,0-1.931-4.916C386.025,1163.767,379.852,1161.046,379.852,1161.046Z" transform="translate(-355.208 -1157.491)" fill="#4ad594"/>
          </g>
        </g>
      </g>
      <g id="Grupo_255" data-name="Grupo 255" transform="translate(0 91.394)">
        <path id="Trazado_991" data-name="Trazado 991" d="M631.2,1017.377l1.58,2.37.549,3.16-9.59,4.1-4.762-2.655,4.455-4.06Z" transform="translate(-608.988 -1014.55)" fill="#cde4f7"/>
        <g id="Grupo_252" data-name="Grupo 252" transform="translate(0)">
          <path id="Trazado_992" data-name="Trazado 992" d="M620.4,1035.209l3.86,2.229a7.367,7.367,0,0,0,6.667,0l11.053-6.381c1.841-1.063,1.841-2.786,0-3.849l-3.86-2.228a7.367,7.367,0,0,0-6.667,0L620.4,1031.36C618.556,1032.422,618.556,1034.146,620.4,1035.209Z" transform="translate(-619.016 -1020.689)" fill="#cde4f7"/>
          <path id="Trazado_993" data-name="Trazado 993" d="M713.468,1025.114l-5.384,5.735-1.99,3.043-6.145-3.628,2.194-2.933,5.413-5.318Z" transform="translate(-697.046 -1018.732)" fill="#b8d8f5"/>
          <path id="Trazado_994" data-name="Trazado 994" d="M641.452,993.489l2.193,1.266a5.041,5.041,0,0,0,4.561,0l3.158-1.823a1.39,1.39,0,0,0,0-2.634l-2.193-1.266a5.041,5.041,0,0,0-4.561,0l-3.158,1.823A1.39,1.39,0,0,0,641.452,993.489Z" transform="translate(-630.071 -988.487)" fill="#e3f1ff"/>
        </g>
        <path id="Trazado_995" data-name="Trazado 995" d="M763.111,1079.884l-5.94-3.518-2.194,2.933,6.145,3.628Z" transform="translate(-752.073 -1067.768)" fill="#b2d2ed"/>
        <g id="Grupo_254" data-name="Grupo 254" transform="translate(0 2.827)">
          <g id="Grupo_253" data-name="Grupo 253" clip-path="url(#clip-path-3)">
            <path id="Trazado_996" data-name="Trazado 996" d="M562.519,1053.712s-3.95,2.429-4.038,2.458a7.776,7.776,0,0,1-1.638,1.96,21.744,21.744,0,0,1-5.354,2.633c-1.551.41-2.721,1.668-3.423,1.843a7.1,7.1,0,0,1-3.482-.322,23.929,23.929,0,0,1-4.769-2.867s-.439-.585.468-1.639,2.019-2.37,2.107-2.4S532,1058.013,532,1058.013l4.828,6.847s10.27,3.072,11.587,3.335,19.223-1.4,19.487-1.756,3.072-3.511,2.809-4.828a41.029,41.029,0,0,0-1.931-4.916C568.692,1056.433,562.519,1053.712,562.519,1053.712Z" transform="translate(-537.875 -1050.157)" fill="#4ad594"/>
          </g>
        </g>
      </g>
      <g id="Grupo_259" data-name="Grupo 259" transform="translate(10.691 62.313)">
        <path id="Trazado_998" data-name="Trazado 998" d="M684.45,949.451l-4.394-2.545,6.333-8.36Z" transform="translate(-678.712 -914.352)" fill="#112b38"/>
        <path id="Trazado_999" data-name="Trazado 999" d="M696.136,839.1l4.76-2.748v-17.3l-4.76,2.748Z" transform="translate(-694.792 -806.546)" fill="#112b38"/>
        <path id="Trazado_1000" data-name="Trazado 1000" d="M651.228,865.109l4.76-2.748v-17.3l-4.76,2.748Z" transform="translate(-645.49 -830.01)" fill="#374e5a"/>
        <g id="Grupo_258" data-name="Grupo 258" transform="translate(0)">
          <g id="Grupo_257" data-name="Grupo 257">
            <path id="Trazado_1001" data-name="Trazado 1001" d="M635.209,691.742h0a2.511,2.511,0,0,1,2.6-.227q.052.027.1.058c.035.018.068.038.1.058s.068.038.1.058.069.038.1.058.068.038.1.058.068.038.1.058.068.038.1.058.068.038.1.058.068.038.1.058.068.038.1.058.068.038.1.058.068.038.1.058.069.038.1.058.068.038.1.058.068.038.1.058.068.038.1.058.068.038.1.058.069.038.1.058.068.038.1.058.068.038.1.058.069.038.1.058.068.038.1.058.068.038.1.058.068.038.1.058.068.038.1.058.069.038.1.058.068.038.1.058.068.038.1.058.068.038.1.058.069.038.1.058.069.038.1.058.068.038.1.058.069.038.1.058.068.038.1.058.068.038.1.058.068.038.1.058.068.038.1.058.068.038.1.058.068.038.1.058.068.038.1.058.068.038.1.058.069.038.1.058.068.038.1.058.068.038.1.058.069.038.1.058.068.038.1.058.069.038.1.058.068.038.1.058.068.038.1.058.069.038.1.058a2.5,2.5,0,0,1,1.117,2.372v10.076a7.988,7.988,0,0,1-3.614,6.26h0a2.511,2.511,0,0,1-2.6.227c-.035-.018-.068-.038-.1-.058s-.068-.038-.1-.058-.069-.038-.1-.058-.068-.038-.1-.058-.069-.038-.1-.058-.068-.038-.1-.058-.068-.038-.1-.058-.069-.038-.1-.058-.068-.038-.1-.058-.069-.038-.1-.058-.068-.038-.1-.058-.068-.038-.1-.058-.069-.038-.1-.058-.068-.038-.1-.058-.069-.038-.1-.058-.069-.038-.1-.058-.068-.038-.1-.058-.069-.038-.1-.058-.068-.038-.1-.058-.068-.038-.1-.058-.068-.038-.1-.058-.068-.038-.1-.058-.068-.038-.1-.058-.068-.038-.1-.058-.068-.038-.1-.058-.068-.038-.1-.058-.069-.038-.1-.058-.068-.038-.1-.058-.068-.038-.1-.058-.069-.038-.1-.058-.068-.038-.1-.058-.068-.038-.1-.058-.069-.038-.1-.058-.068-.038-.1-.058-.069-.038-.1-.058-.068-.038-.1-.058-.068-.038-.1-.058-.068-.038-.1-.058-.068-.038-.1-.058-.069-.038-.1-.058-.068-.038-.1-.058-.069-.038-.1-.058-.068-.038-.1-.058-.069-.038-.1-.058-.068-.038-.1-.058-.069-.038-.1-.058-.069-.038-.1-.058-.068-.038-.1-.058-.068-.038-.1-.058-.068-.038-.1-.058a2.5,2.5,0,0,1-1.117-2.372V698A7.988,7.988,0,0,1,635.209,691.742Z" transform="translate(-631.595 -691.249)" fill="#afcae3"/>
            <path id="Trazado_1002" data-name="Trazado 1002" d="M635.209,740.594h0a7.988,7.988,0,0,0,3.614-6.26V724.258c0-2.3-1.618-3.239-3.614-2.087h0a7.987,7.987,0,0,0-3.614,6.26v10.076C631.6,740.812,633.213,741.746,635.209,740.594Z" transform="translate(-626.404 -718.7)" fill="#d7ebfc"/>
            <ellipse id="Elipse_38" data-name="Elipse 38" cx="2.015" cy="3.49" rx="2.015" ry="3.49" transform="translate(8.805 11.267) rotate(-150)" fill="#00b9d6"/>
            <path id="Trazado_1003" data-name="Trazado 1003" d="M653.218,847.226c0,.937.658,1.317,1.469.848a3.247,3.247,0,0,0,1.469-2.545c0-.937-.658-1.317-1.469-.848A3.247,3.247,0,0,0,653.218,847.226Z" transform="translate(-645.853 -829.489)" fill="#31be7c"/>
            <g id="Grupo_256" data-name="Grupo 256" transform="translate(7.086 5.018)">
              <path id="Trazado_1004" data-name="Trazado 1004" d="M652.686,746.739a3.8,3.8,0,0,0,1.719-2.977c0-1.094-.771-1.54-1.719-.992a3.8,3.8,0,0,0-1.719,2.977C650.967,746.841,651.738,747.286,652.686,746.739Zm0-3.766c.85-.491,1.542-.091,1.543.891a3.414,3.414,0,0,1-1.543,2.672c-.851.491-1.543.092-1.543-.891A3.414,3.414,0,0,1,652.686,742.973Z" transform="translate(-650.967 -742.536)" fill="#d1e4f5"/>
            </g>
          </g>
          <path id="Trazado_1005" data-name="Trazado 1005" d="M629.955,832.924c.646-.288,1.146-1.069,1.5-1.323l1.689-.975c.353-.153.852.051,1.5-.407s1.513-1.111,1.513-1.111v2.13s-.867.348-1.513.636-1.146,1.069-1.5,1.323l-1.689.975c-.353.153-.852-.051-1.5.407s-1.513,1.111-1.513,1.111v-2.13S629.309,833.212,629.955,832.924Z" transform="translate(-623.427 -815.619)" fill="#4ad594"/>
        </g>
        <path id="Trazado_1006" data-name="Trazado 1006" d="M657.331,950.249h0a.88.88,0,0,0,.4-.687v-6.548c0-.252-.179-.355-.4-.229h0a.88.88,0,0,0-.4.687v6.548C656.934,950.272,657.113,950.375,657.331,950.249Z" transform="translate(-647.787 -918.126)" fill="#112b38"/>
        <path id="Trazado_1007" data-name="Trazado 1007" d="M683.459,965.333h0a.88.88,0,0,0,.4-.687V958.1c0-.252-.179-.355-.4-.229h0a.88.88,0,0,0-.4.687V965.1C683.062,965.356,683.24,965.459,683.459,965.333Z" transform="translate(-676.472 -931.735)" fill="#112b38"/>
      </g>
      <path id="Trazado_1008" data-name="Trazado 1008" d="M486.931,771.675l1.238-7.64-10.5,1.044v7.175l.652,1.37Z" transform="translate(-450 -694.602)" fill="#d0e3f5"/>
      <path id="Trazado_1009" data-name="Trazado 1009" d="M508.591,809.512l-6.125-3.536-12.14,7.01,6.125,3.536Z" transform="translate(-471.659 -732.438)" fill="#cbe1f5"/>
      <path id="Trazado_1010" data-name="Trazado 1010" d="M622.884,800.511v6.667l-6.125-3.536-2.348-8.023Z" transform="translate(-598.093 -723.095)" fill="#afcae3"/>
      <g id="Grupo_262" data-name="Grupo 262" transform="translate(16.318 69.434)">
        <g id="Grupo_261" data-name="Grupo 261" clip-path="url(#clip-path-4)">
          <g id="Grupo_260" data-name="Grupo 260" transform="translate(-3.194 -6.092)" style="mix-blend-mode: multiply;isolation: isolate">
            <path id="Trazado_1011" data-name="Trazado 1011" d="M434.659,710.8l12.737,7.354a5.213,5.213,0,0,0,4.716,0l9.941-5.74c1.3-.752,1.3-1.971,0-2.723l-12.737-7.354a5.213,5.213,0,0,0-4.716,0l-9.941,5.74C433.356,708.827,433.356,710.047,434.659,710.8Z" transform="translate(-433.682 -701.772)" fill="#d1e4f5"/>
          </g>
        </g>
      </g>
      <g id="Grupo_266" data-name="Grupo 266" transform="translate(28.399 72.439)">
        <path id="Trazado_1013" data-name="Trazado 1013" d="M503.45,1052.951l-4.394-2.545,6.333-8.359Z" transform="translate(-497.712 -1017.852)" fill="#112b38"/>
        <path id="Trazado_1014" data-name="Trazado 1014" d="M515.136,942.6l4.76-2.748v-17.3l-4.76,2.748Z" transform="translate(-513.792 -910.045)" fill="#112b38"/>
        <path id="Trazado_1015" data-name="Trazado 1015" d="M470.228,968.609l4.76-2.748v-17.3l-4.76,2.748Z" transform="translate(-464.49 -933.51)" fill="#374e5a"/>
        <g id="Grupo_265" data-name="Grupo 265" transform="translate(0)">
          <g id="Grupo_264" data-name="Grupo 264">
            <path id="Trazado_1016" data-name="Trazado 1016" d="M454.209,795.242h0a2.511,2.511,0,0,1,2.6-.227c.035.018.069.038.1.058s.069.038.1.058.068.038.1.058.069.038.1.058.068.038.1.058.068.038.1.058.068.038.1.058.069.038.1.058.068.038.1.058.068.038.1.058.068.038.1.058.068.038.1.058.069.038.1.058.068.038.1.058.068.038.1.058.068.038.1.058.068.038.1.058.069.038.1.058.068.038.1.058.068.038.1.058.069.038.1.058.068.038.1.058.068.038.1.058.068.038.1.058.068.038.1.058.069.038.1.058.068.038.1.058.068.038.1.058.068.038.1.058.069.038.1.058.069.038.1.058.068.038.1.058.069.038.1.058.068.038.1.058.068.038.1.058.068.038.1.058.068.038.1.058.068.038.1.058.068.038.1.058.069.038.1.058.068.038.1.058.069.038.1.058.068.038.1.058.068.038.1.058.069.038.1.058.068.038.1.058.069.038.1.058.068.038.1.058.069.038.1.058.069.038.1.058a2.5,2.5,0,0,1,1.117,2.372v10.076a7.988,7.988,0,0,1-3.614,6.26h0a2.511,2.511,0,0,1-2.6.227c-.035-.018-.069-.038-.1-.058s-.068-.038-.1-.058-.069-.038-.1-.058-.068-.038-.1-.058-.069-.038-.1-.058-.068-.038-.1-.058-.068-.038-.1-.058-.068-.038-.1-.058-.068-.038-.1-.058-.069-.038-.1-.058-.068-.038-.1-.058-.068-.038-.1-.058-.069-.038-.1-.058-.068-.038-.1-.058-.069-.038-.1-.058-.069-.038-.1-.058-.068-.038-.1-.058-.069-.038-.1-.058-.068-.038-.1-.058-.068-.038-.1-.058-.068-.038-.1-.058-.068-.038-.1-.058-.068-.038-.1-.058-.068-.038-.1-.058-.068-.038-.1-.058-.068-.038-.1-.059-.069-.038-.1-.058-.068-.038-.1-.058-.068-.038-.1-.058-.069-.038-.1-.058-.068-.038-.1-.058-.068-.038-.1-.058-.068-.038-.1-.058-.068-.038-.1-.058-.069-.038-.1-.058-.068-.038-.1-.058-.068-.038-.1-.058-.068-.038-.1-.058-.069-.038-.1-.058-.068-.038-.1-.058-.068-.038-.1-.058-.069-.038-.1-.058-.068-.038-.1-.058-.069-.038-.1-.059-.068-.038-.1-.058-.068-.038-.1-.058-.069-.038-.1-.058-.069-.038-.1-.058-.068-.038-.1-.058-.068-.038-.1-.058a2.5,2.5,0,0,1-1.117-2.372V801.5A7.988,7.988,0,0,1,454.209,795.242Z" transform="translate(-450.595 -794.749)" fill="#afcae3"/>
            <path id="Trazado_1017" data-name="Trazado 1017" d="M454.209,844.094h0a7.988,7.988,0,0,0,3.614-6.26V827.758c0-2.3-1.618-3.239-3.614-2.087h0a7.987,7.987,0,0,0-3.614,6.26v10.077C450.6,844.312,452.213,845.246,454.209,844.094Z" transform="translate(-445.404 -822.2)" fill="#d7ebfc"/>
            <ellipse id="Elipse_39" data-name="Elipse 39" cx="2.015" cy="3.49" rx="2.015" ry="3.49" transform="translate(8.805 11.267) rotate(-150)" fill="#4ad594"/>
            <path id="Trazado_1018" data-name="Trazado 1018" d="M472.218,950.726c0,.937.658,1.317,1.469.848a3.247,3.247,0,0,0,1.469-2.545c0-.937-.658-1.317-1.469-.848A3.247,3.247,0,0,0,472.218,950.726Z" transform="translate(-464.852 -932.989)" fill="#31be7c"/>
            <g id="Grupo_263" data-name="Grupo 263" transform="translate(7.086 5.018)">
              <path id="Trazado_1019" data-name="Trazado 1019" d="M471.686,850.239a3.8,3.8,0,0,0,1.719-2.977c0-1.094-.771-1.54-1.719-.992a3.8,3.8,0,0,0-1.719,2.977C469.967,850.341,470.738,850.786,471.686,850.239Zm0-3.766c.85-.491,1.542-.091,1.543.891a3.414,3.414,0,0,1-1.543,2.672c-.851.491-1.543.092-1.543-.891A3.414,3.414,0,0,1,471.686,846.473Z" transform="translate(-469.967 -846.036)" fill="#d1e4f5"/>
            </g>
          </g>
          <path id="Trazado_1020" data-name="Trazado 1020" d="M448.955,936.424c.646-.288,1.146-1.069,1.5-1.323l1.69-.975c.353-.153.852.051,1.5-.407s1.513-1.111,1.513-1.111v2.13s-.867.348-1.513.636-1.146,1.069-1.5,1.323l-1.69.975c-.353.153-.852-.051-1.5.407s-1.513,1.111-1.513,1.111v-2.13S448.309,936.712,448.955,936.424Z" transform="translate(-442.427 -919.119)" fill="#4ad594"/>
        </g>
        <path id="Trazado_1021" data-name="Trazado 1021" d="M476.331,1053.749h0a.88.88,0,0,0,.4-.687v-6.548c0-.252-.179-.355-.4-.229h0a.88.88,0,0,0-.4.687v6.548C475.934,1053.772,476.113,1053.875,476.331,1053.749Z" transform="translate(-466.787 -1021.627)" fill="#112b38"/>
        <path id="Trazado_1022" data-name="Trazado 1022" d="M502.459,1068.833h0a.88.88,0,0,0,.4-.687V1061.6c0-.252-.179-.355-.4-.229h0a.88.88,0,0,0-.4.687v6.548C502.062,1068.857,502.241,1068.96,502.459,1068.833Z" transform="translate(-495.472 -1035.235)" fill="#112b38"/>
      </g>
      <g id="Grupo_267" data-name="Grupo 267" transform="translate(13.124 62.315)">
        <path id="Trazado_1023" data-name="Trazado 1023" d="M434.659,700.3l12.737,7.354a5.212,5.212,0,0,0,4.716,0l9.941-5.74c1.3-.752,1.3-1.971,0-2.723l-12.737-7.354a5.212,5.212,0,0,0-4.716,0l-9.941,5.74C433.356,698.327,433.356,699.547,434.659,700.3Z" transform="translate(-433.682 -691.271)" fill="#d1e4f5"/>
      </g>
      <path id="Trazado_1024" data-name="Trazado 1024" d="M447.169,708.26l-1.985,6.351-13.587,4.77-15.687-6.849L414,706.369Z" transform="translate(-402.77 -642.577)" fill="#d1e4f5"/>
      <g id="Grupo_268" data-name="Grupo 268" transform="translate(11.225 54.859)">
        <path id="Trazado_1025" data-name="Trazado 1025" d="M415.369,625.262l14.386,8.306a5.887,5.887,0,0,0,5.327,0l11.228-6.483c1.471-.849,1.471-2.226,0-3.076L431.925,615.7a5.887,5.887,0,0,0-5.327,0l-11.228,6.483C413.9,623.035,413.9,624.412,415.369,625.262Z" transform="translate(-414.266 -615.066)" fill="#4ad594"/>
      </g>
      <g id="Grupo_269" data-name="Grupo 269" transform="translate(11.225 52.071)">
        <path id="Trazado_1026" data-name="Trazado 1026" d="M415.369,596.762l14.386,8.306a5.887,5.887,0,0,0,5.327,0l11.228-6.483c1.471-.849,1.471-2.226,0-3.076L431.925,587.2a5.887,5.887,0,0,0-5.327,0l-11.228,6.483C413.9,594.535,413.9,595.912,415.369,596.762Z" transform="translate(-414.266 -586.566)" fill="#d1e4f5"/>
      </g>
      <path id="Trazado_1027" data-name="Trazado 1027" d="M447.41,524.891l0,14.767-22.7-.642-10.428-1.137-.008-14.843Z" transform="translate(-403.037 -477.181)" fill="#d1e4f5"/>
      <g id="Grupo_270" data-name="Grupo 270" transform="translate(11.225 37.199)">
        <path id="Trazado_1028" data-name="Trazado 1028" d="M415.369,444.762l14.386,8.306a5.887,5.887,0,0,0,5.327,0l11.228-6.483c1.471-.849,1.471-2.226,0-3.076L431.925,435.2a5.887,5.887,0,0,0-5.327,0l-11.228,6.483C413.9,442.535,413.9,443.912,415.369,444.762Z" transform="translate(-414.266 -434.566)" fill="#f2f9ff"/>
      </g>
      <g id="Grupo_271" data-name="Grupo 271" transform="translate(14.681 55.633)">
        <path id="Trazado_1029" data-name="Trazado 1029" d="M640.732,633.46l2.033-2.892-2.033-5.239-4.066-2.347-2.033,2.892,2.033,5.239Z" transform="translate(-634.633 -622.981)" fill="#4ad594"/>
        <path id="Trazado_1030" data-name="Trazado 1030" d="M659.141,657.3l1.8-.161v-2.4l-1.8-2.235-1.8.161v2.4Z" transform="translate(-655.029 -649.615)" fill="#5bdea1"/>
        <path id="Trazado_1031" data-name="Trazado 1031" d="M668.141,662.546l1.8-.161v-2.4l-1.8-2.235-1.8.161v2.4Z" transform="translate(-664.909 -654.352)" fill="#34bc7c"/>
      </g>
      <path id="Trazado_1032" data-name="Trazado 1032" d="M658.225,677.749l-.88.514v-2.4l.881-.514Z" transform="translate(-637.634 -614.595)" fill="#23a568"/>
      <path id="Trazado_1033" data-name="Trazado 1033" d="M678.389,652.5l-.881.514-1.8.161.881-.514Z" transform="translate(-659.595 -593.982)" fill="#34d188"/>
      <g id="Grupo_278" data-name="Grupo 278" transform="translate(11.808 0)">
        <g id="Grupo_273" data-name="Grupo 273" transform="translate(8.105)">
          <g id="Grupo_272" data-name="Grupo 272" transform="translate(0 19.696)">
            <path id="Trazado_1034" data-name="Trazado 1034" d="M610.978,257.185a.737.737,0,0,1,.436-.619l1.113-.643a2.346,2.346,0,0,1,2.115,0l1.113.643a.737.737,0,0,1,.436.619q0,.008,0,.016c0,.005,0,.011,0,.016s0,.011,0,.016,0,.011,0,.016,0,.011,0,.016,0,.011,0,.016,0,.011,0,.016,0,.011,0,.016,0,.011,0,.016,0,.011,0,.016,0,.011,0,.016,0,.011,0,.016,0,.011,0,.016,0,.011,0,.016,0,.011,0,.016,0,.011,0,.016,0,.011,0,.016,0,.011,0,.016,0,.011,0,.016,0,.011,0,.016,0,.011,0,.016,0,.011,0,.016,0,.011,0,.016,0,.011,0,.016,0,.011,0,.016,0,.011,0,.016,0,.011,0,.016,0,.011,0,.016,0,.011,0,.016,0,.011,0,.016,0,.011,0,.016,0,.011,0,.016,0,.011,0,.016,0,.011,0,.016,0,.011,0,.016,0,.011,0,.016,0,.011,0,.016,0,.011,0,.016,0,.011,0,.016,0,.011,0,.016,0,.011,0,.016,0,.011,0,.016,0,.011,0,.016,0,.011,0,.016,0,.011,0,.016,0,.011,0,.016,0,.011,0,.016,0,.011,0,.016,0,.011,0,.016,0,.011,0,.016a.737.737,0,0,1-.436.619l-1.113.643a2.347,2.347,0,0,1-2.115,0l-1.113-.643a.737.737,0,0,1-.436-.619c0-.005,0-.011,0-.016s0-.011,0-.016,0-.011,0-.016,0-.011,0-.016,0-.011,0-.016,0-.011,0-.016,0-.011,0-.016,0-.011,0-.016,0-.011,0-.016,0-.011,0-.016,0-.011,0-.016,0-.011,0-.016,0-.011,0-.016,0-.011,0-.016,0-.011,0-.016,0-.011,0-.016,0-.011,0-.016,0-.011,0-.016,0-.011,0-.016,0-.011,0-.016,0-.011,0-.016,0-.011,0-.016,0-.011,0-.016,0-.011,0-.016,0-.011,0-.016,0-.011,0-.016,0-.011,0-.016,0-.011,0-.016,0-.011,0-.016,0-.011,0-.016,0-.011,0-.016,0-.011,0-.016,0-.011,0-.016,0-.011,0-.016,0-.011,0-.016,0-.011,0-.016,0-.011,0-.016,0-.011,0-.016,0-.011,0-.016,0-.011,0-.016,0-.011,0-.016,0-.011,0-.016,0-.011,0-.016,0-.011,0-.016,0-.011,0-.016,0-.011,0-.016,0-.011,0-.016,0-.011,0-.016,0-.011,0-.016S610.978,257.19,610.978,257.185Z" transform="translate(-610.978 -255.671)" fill="#bdd9f5"/>
            <path id="Trazado_1035" data-name="Trazado 1035" d="M611.411,257.787l1.113.643a2.346,2.346,0,0,0,2.115,0l1.113-.643a.645.645,0,0,0,0-1.221l-1.113-.643a2.346,2.346,0,0,0-2.115,0l-1.113.643A.645.645,0,0,0,611.411,257.787Z" transform="translate(-610.975 -255.671)" fill="#d1e4f5"/>
          </g>
          <path id="Trazado_1036" data-name="Trazado 1036" d="M627.262,75.3a692.29,692.29,0,0,0,.015-.616,345.276,345.276,0,0,0,.01-.411,411.077,411.077,0,0,0,.015-.616,408.482,408.482,0,0,0,.015-.616,664.513,664.513,0,0,0,.01-.411,346.009,346.009,0,0,1,.01-.411,352.071,352.071,0,0,0,.01-.411,660.523,660.523,0,0,0,.01-.411,1987.8,1987.8,0,0,1,.015-.616,352.159,352.159,0,0,1,.01-.411,24902.4,24902.4,0,0,0,.015-.616,18677.843,18677.843,0,0,0,.01-.411,2246.324,2246.324,0,0,1,.015-.616,749,749,0,0,1,.01-.411,689.486,689.486,0,0,0,.01-.411,693.777,693.777,0,0,1,.01-.411.289.289,0,0,1,.005-.205,691.6,691.6,0,0,1,.01-.411,693.777,693.777,0,0,1,.01-.411,20404.218,20404.218,0,0,0,.01-.411,346.343,346.343,0,0,0,.01-.411,189.251,189.251,0,0,1,.011-.41,693.777,693.777,0,0,0,.01-.411,693.777,693.777,0,0,0,.01-.411,227.362,227.362,0,0,0,.01-.411,691.6,691.6,0,0,0,.01-.411,230.422,230.422,0,0,1,.01-.411,689.486,689.486,0,0,1,.01-.411,448580.456,448580.456,0,0,1,.01-.411,338.828,338.828,0,0,0,.01-.411,690.541,690.541,0,0,0,.01-.411,346.093,346.093,0,0,0,.01-.411,690.541,690.541,0,0,0,.01-.411,692.686,692.686,0,0,0,.01-.411,690.544,690.544,0,0,0,.01-.411,338.776,338.776,0,0,1,.01-.411,663.566,663.566,0,0,0,.01-.41,662.528,662.528,0,0,0,.01-.41,720.046,720.046,0,0,0,.01-.41.216.216,0,0,1,.005-.205,664.556,664.556,0,0,0,.01-.41,693.191,693.191,0,0,1,.01-.411,693.86,693.86,0,0,0,.01-.411,720.945,720.945,0,0,0,.011-.411,345.549,345.549,0,0,0,.01-.411,432961.362,432961.362,0,0,0,.01-.411,691.672,691.672,0,0,0,.011-.411,216486.713,216486.713,0,0,0,.01-.411c-.062-.108-.02-.231.128-.317a.837.837,0,0,1,.757,0c.148.086.191.209.128.317a.19.19,0,0,1,.005.205,690.549,690.549,0,0,1,.011.411,691.656,691.656,0,0,0,.01.411,230.43,230.43,0,0,1,.011.411,432961.368,432961.368,0,0,1,.01.411,353.322,353.322,0,0,1,.01.411,721.132,721.132,0,0,1,.01.411,345.211,345.211,0,0,1,.01.411.214.214,0,0,1,.005.205,720.425,720.425,0,0,1,.01.41,690.958,690.958,0,0,0,.01.411.222.222,0,0,1,.005.205,345.224,345.224,0,0,0,.01.411,751.143,751.143,0,0,0,.01.411,345.536,345.536,0,0,0,.01.411,690.541,690.541,0,0,1,.01.411,692.686,692.686,0,0,1,.01.411,692.74,692.74,0,0,0,.01.411,346.069,346.069,0,0,1,.01.411,663.81,663.81,0,0,0,.01.411,448580.456,448580.456,0,0,1,.01.411,689.486,689.486,0,0,1,.01.411,690.544,690.544,0,0,1,.01.411.26.26,0,0,1,.005.205,723.366,723.366,0,0,0,.01.411,345.8,345.8,0,0,1,.01.411,689.486,689.486,0,0,0,.01.411,72.713,72.713,0,0,0,.011.41,377.438,377.438,0,0,1,.01.411,716.372,716.372,0,0,0,.01.411.281.281,0,0,1,.005.205,689.486,689.486,0,0,0,.01.411,691.6,691.6,0,0,0,.01.411,346.343,346.343,0,0,0,.01.411,224296.474,224296.474,0,0,1,.01.411,424.512,424.512,0,0,1,.015.616,720.321,720.321,0,0,1,.01.411,717.678,717.678,0,0,0,.01.411,664.513,664.513,0,0,1,.01.411,223971.852,223971.852,0,0,1,.01.411,1987.8,1987.8,0,0,0,.015.616,2167.588,2167.588,0,0,0,.015.616,111979.686,111979.686,0,0,1,.01.411,666.476,666.476,0,0,0,.01.411,353.167,353.167,0,0,0,.01.411,2238.913,2238.913,0,0,0,.015.616,16009.579,16009.579,0,0,1,.01.411,720.321,720.321,0,0,0,.01.411,689.5,689.5,0,0,0,.01.411,230.772,230.772,0,0,0,.01.411.352.352,0,0,1,.005.205c.061.188-.034.389-.286.535a1.62,1.62,0,0,1-1.466,0C627.3,75.686,627.2,75.484,627.262,75.3Z" transform="translate(-625.695 -54.356)" fill="#ebf5ff"/>
        </g>
        <path id="Trazado_1037" data-name="Trazado 1037" d="M585.514,261.107v-1.8c0-2.849-2.031-3.966-4.5-2.473l-9.363,5.665a2.523,2.523,0,0,0-.676.626l-2.254,2.942a2.93,2.93,0,0,0-.618,1.575l-.116,2.7c-.032.737.375,1.151.976.993l2.56-.672a1.426,1.426,0,0,0,.349-.148l12.311-7.107A2.934,2.934,0,0,0,585.514,261.107Z" transform="translate(-567.989 -236.424)" fill="#d1e4f5"/>
        <path id="Trazado_1038" data-name="Trazado 1038" d="M448.707,237.95,435.3,230.245l-8.546,11.488-7.2,15.367,13.339,7.688Z" transform="translate(-416.659 -213.036)" fill="#b9d4ed"/>
        <g id="Grupo_274" data-name="Grupo 274" transform="translate(0.412 17.134)">
          <path id="Trazado_1039" data-name="Trazado 1039" d="M553.535,239.273l-.821-8.214-1.154-1.253a1.249,1.249,0,0,0-1.542-.128c-2.507,1.228-9.088,4.579-11.394,6.988-2.873,3-4.788,8.924-5.266,9.674s-.342,7.542-.342,7.542l2.462,2.527,6.429-2.448,9.233-5.331Z" transform="translate(-532.998 -229.48)" fill="#b9d4ed"/>
        </g>
        <g id="Grupo_275" data-name="Grupo 275" transform="translate(13.751 24.821)">
          <path id="Trazado_1040" data-name="Trazado 1040" d="M417.2,317.847l-.821-8.213-1.154-1.253a1.249,1.249,0,0,0-1.542-.128c-2.507,1.228-9.088,4.579-11.394,6.988-2.873,3-4.788,8.924-5.266,9.674s-.342,7.542-.342,7.542l2.462,2.527,6.429-2.448,9.233-5.331Z" transform="translate(-396.659 -308.054)" fill="#d1e4f5"/>
          <path id="Trazado_1041" data-name="Trazado 1041" d="M407.193,363.9v-1.8c0-2.848-2.031-3.966-4.5-2.473l-9.363,5.665a2.522,2.522,0,0,0-.676.626l-2.254,2.942a2.932,2.932,0,0,0-.618,1.575l-.116,2.7c-.032.737.375,1.151.976.993l2.56-.672a1.431,1.431,0,0,0,.349-.148l12.311-7.107A2.934,2.934,0,0,0,407.193,363.9Z" transform="translate(-385.972 -353.983)" fill="#b3cee8"/>
          <path id="Trazado_1042" data-name="Trazado 1042" d="M375.979,381.841v-1.8c0-2.848-2.031-3.965-4.5-2.473l-9.363,5.665a2.522,2.522,0,0,0-.676.626l-2.254,2.942a2.931,2.931,0,0,0-.618,1.575l-.116,2.7c-.032.738.375,1.151.976.993l2.56-.672a1.427,1.427,0,0,0,.349-.148l12.311-7.107A2.933,2.933,0,0,0,375.979,381.841Z" transform="translate(-351.704 -370.167)" fill="#deefff"/>
        </g>
        <g id="Grupo_277" data-name="Grupo 277" transform="translate(26.851 10.706)">
          <g id="Grupo_276" data-name="Grupo 276" transform="translate(0 19.696)">
            <path id="Trazado_1043" data-name="Trazado 1043" d="M419.386,366.614a.737.737,0,0,1,.436-.619l1.113-.643a2.346,2.346,0,0,1,2.115,0l1.113.643a.737.737,0,0,1,.436.619c0,.005,0,.011,0,.016s0,.011,0,.016,0,.011,0,.016,0,.011,0,.016,0,.011,0,.016,0,.011,0,.016,0,.011,0,.016,0,.011,0,.016,0,.011,0,.016,0,.011,0,.016,0,.011,0,.016,0,.011,0,.016,0,.011,0,.016,0,.011,0,.016,0,.011,0,.016,0,.011,0,.016,0,.011,0,.016,0,.011,0,.016,0,.011,0,.016,0,.011,0,.016,0,.011,0,.016,0,.011,0,.016,0,.011,0,.016,0,.011,0,.016,0,.011,0,.016,0,.011,0,.016,0,.011,0,.016,0,.011,0,.016,0,.011,0,.016,0,.011,0,.016,0,.011,0,.016,0,.011,0,.016,0,.011,0,.016,0,.011,0,.016,0,.011,0,.016,0,.011,0,.016,0,.011,0,.016,0,.011,0,.016,0,.011,0,.016,0,.011,0,.016,0,.011,0,.016,0,.011,0,.016,0,.011,0,.016,0,.011,0,.016,0,.011,0,.016,0,.011,0,.016,0,.011,0,.016,0,.011,0,.016,0,.011,0,.016,0,.011,0,.016a.737.737,0,0,1-.436.619l-1.113.643a2.345,2.345,0,0,1-2.115,0l-1.113-.643a.737.737,0,0,1-.436-.619c0-.005,0-.011,0-.016s0-.011,0-.016,0-.011,0-.016,0-.011,0-.016,0-.011,0-.016,0-.011,0-.016,0-.011,0-.016,0-.011,0-.016,0-.011,0-.016,0-.011,0-.016,0-.011,0-.016,0-.011,0-.016,0-.011,0-.016,0-.011,0-.016,0-.011,0-.016,0-.011,0-.016,0-.011,0-.016,0-.011,0-.016,0-.011,0-.016,0-.011,0-.016,0-.011,0-.016,0-.011,0-.016,0-.011,0-.016,0-.011,0-.016,0-.011,0-.016,0-.011,0-.016,0-.011,0-.016,0-.011,0-.016,0-.011,0-.016,0-.011,0-.016,0-.011,0-.016,0-.011,0-.016,0-.011,0-.016,0-.011,0-.016,0-.011,0-.016,0-.011,0-.016,0-.011,0-.016,0-.011,0-.016,0-.011,0-.016,0-.011,0-.016,0-.011,0-.016,0-.011,0-.016,0-.011,0-.016,0-.011,0-.016,0-.011,0-.016,0-.011,0-.016,0-.011,0-.016,0-.011,0-.016,0-.011,0-.016S419.386,366.62,419.386,366.614Z" transform="translate(-419.386 -365.101)" fill="#bdd9f5"/>
            <path id="Trazado_1044" data-name="Trazado 1044" d="M419.82,367.217l1.113.643a2.345,2.345,0,0,0,2.115,0l1.113-.643a.645.645,0,0,0,0-1.221l-1.113-.643a2.346,2.346,0,0,0-2.115,0L419.82,366A.645.645,0,0,0,419.82,367.217Z" transform="translate(-419.384 -365.101)" fill="#d1e4f5"/>
          </g>
          <path id="Trazado_1045" data-name="Trazado 1045" d="M435.67,184.727a276.612,276.612,0,0,0,.01-.411,448.4,448.4,0,0,0,.01-.411,476.516,476.516,0,0,0,.01-.411,1473.757,1473.757,0,0,0,.01-.411,341.476,341.476,0,0,1,.01-.411,1272.763,1272.763,0,0,0,.01-.411,807.626,807.626,0,0,0,.015-.616,1454.676,1454.676,0,0,1,.01-.411,462.528,462.528,0,0,0,.01-.411,22279.445,22279.445,0,0,1,.01-.411,717.626,717.626,0,0,1,.01-.411,466.386,466.386,0,0,0,.01-.411,1286.921,1286.921,0,0,1,.01-.411,655.125,655.125,0,0,1,.01-.411,453.451,453.451,0,0,0,.01-.411,1513.689,1513.689,0,0,1,.01-.411,111471.694,111471.694,0,0,1,.01-.411,1418.387,1418.387,0,0,1,.01-.411,361594255202.037,361594255202.037,0,0,0,.01-.411,1475.239,1475.239,0,0,1,.01-.411,683.259,683.259,0,0,0,.01-.411,1383.088,1383.088,0,0,1,.01-.411,55742.064,55742.064,0,0,0,.01-.411,131.9,131.9,0,0,1,.011-.41,448.189,448.189,0,0,1,.01-.411,55742.072,55742.072,0,0,1,.01-.411,1366.288,1366.288,0,0,0,.01-.411,346.886,346.886,0,0,0,.01-.411,55742.059,55742.059,0,0,1,.01-.411,714.2,714.2,0,0,1,.01-.411,55742.059,55742.059,0,0,1,.01-.411,1383.293,1383.293,0,0,1,.01-.411,275.953,275.953,0,0,0,.01-.411,1383.293,1383.293,0,0,0,.01-.411,345.782,345.782,0,0,1,.01-.411,1535.877,1535.877,0,0,0,.01-.411,1383.293,1383.293,0,0,1,.01-.411.229.229,0,0,1,.005-.205,713.237,713.237,0,0,0,.01-.41,462.526,462.526,0,0,1,.01-.411,1284.376,1284.376,0,0,0,.01-.41,661.336,661.336,0,0,1,.01-.41,445.538,445.538,0,0,1,.01-.41,13680.9,13680.9,0,0,0,.01-.411,1383.181,1383.181,0,0,0,.011-.411,231.55,231.55,0,0,0,.01-.411,53812.439,53812.439,0,0,0,.011-.411,691.587,691.587,0,0,0,.01-.411,1383.387,1383.387,0,0,0,.011-.411,447.978,447.978,0,0,1,.01-.411c-.062-.108-.02-.231.128-.317a.836.836,0,0,1,.757,0c.149.086.191.209.128.317a662.484,662.484,0,0,1,.01.411,1383.4,1383.4,0,0,1,.011.411,691.579,691.579,0,0,0,.01.411,1420.013,1420.013,0,0,1,.011.411,465.074,465.074,0,0,0,.01.411,803597060209.29,803597060209.29,0,0,0,.011.411,728.163,728.163,0,0,1,.01.411,13659.579,13659.579,0,0,1,.01.41,474.254,474.254,0,0,0,.01.41,665.515,665.515,0,0,0,.01.41,1399.434,1399.434,0,0,1,.01.411,712.947,712.947,0,0,0,.01.41,338.219,338.219,0,0,1,.01.411,1366.288,1366.288,0,0,0,.01.411,446.413,446.413,0,0,0,.01.411,1366.288,1366.288,0,0,1,.01.411.242.242,0,0,1,.005.205,687.317,687.317,0,0,0,.01.411,723242147835.615,723242147835.615,0,0,0,.01.411,1273.543,1273.543,0,0,1,.01.411,345.829,345.829,0,0,1,.01.411,55742.055,55742.055,0,0,1,.01.411,1400.759,1400.759,0,0,0,.01.411,1400.517,1400.517,0,0,1,.01.411,700.34,700.34,0,0,0,.01.411,662.957,662.957,0,0,1,.01.411,120.337,120.337,0,0,1,.011.41,1418.387,1418.387,0,0,1,.01.411,1383.1,1383.1,0,0,0,.01.411,1349.895,1349.895,0,0,0,.01.411,340.777,340.777,0,0,0,.01.411,1383.088,1383.088,0,0,1,.01.411,55742.064,55742.064,0,0,0,.01.411,1400.517,1400.517,0,0,0,.01.411,1272.364,1272.364,0,0,0,.01.411,341.476,341.476,0,0,0,.01.411,1343.532,1343.532,0,0,0,.015.616,827.349,827.349,0,0,0,.015.616,3952.111,3952.111,0,0,0,.015.616,18564.135,18564.135,0,0,0,.01.411,336.358,336.358,0,0,0,.01.411,1005.659,1005.659,0,0,0,.015.616,1005.659,1005.659,0,0,0,.015.616,1017.969,1017.969,0,0,0,.015.616,1070.17,1070.17,0,0,0,.015.616,722.9,722.9,0,0,0,.01.411,691.533,691.533,0,0,0,.01.411c.061.188-.034.389-.286.535a1.621,1.621,0,0,1-1.466,0C435.7,185.116,435.609,184.914,435.67,184.727Z" transform="translate(-434.103 -163.786)" fill="#ebf5ff"/>
        </g>
        <path id="Trazado_1046" data-name="Trazado 1046" d="M524.339,325.515c0-.008.009-.017.013-.024.412-.646,1.89-5.128,4.127-8.277L541.9,324.87l1.148-.67,2.222-1.3.1,1.281a3.606,3.606,0,0,1-.741,2.489l-2.133,2.76-2.928,2.472a3.756,3.756,0,0,1-4.308.378l-.461-.268-10.556-6.127S524.278,325.752,524.339,325.515Z" transform="translate(-523.58 -291.496)" fill="#112b38"/>
        <path id="Trazado_1047" data-name="Trazado 1047" d="M571.66,391.907l3.417,1.966a.234.234,0,0,0,.369-.169h0a.519.519,0,0,0-.234-.516l-3.417-1.966a.234.234,0,0,0-.369.169h0A.519.519,0,0,0,571.66,391.907Z" transform="translate(-558.264 -358.226)" fill="#4ad594"/>
        <path id="Trazado_1048" data-name="Trazado 1048" d="M664.227,341.318l3.417,1.966a.234.234,0,0,0,.369-.169h0a.519.519,0,0,0-.234-.516l-3.417-1.966a.234.234,0,0,0-.369.169h0A.519.519,0,0,0,664.227,341.318Z" transform="translate(-659.887 -312.587)" fill="#4ad594"/>
        <path id="Trazado_1049" data-name="Trazado 1049" d="M647.247,473.877l5.165,2.982a.238.238,0,0,0,.3-.005l.281-.292c.175-.182,0-.677-.3-.851l-5.728-3.307c-.3-.174-.477.118-.3.5l.281.618A.8.8,0,0,0,647.247,473.877Z" transform="translate(-643.23 -431.456)" fill="#112b38"/>
      </g>
      <g id="Grupo_282" data-name="Grupo 282" transform="translate(34.064 48.764)">
        <ellipse id="Elipse_40" data-name="Elipse 40" cx="2.033" cy="3.521" rx="2.033" ry="3.521" transform="translate(7.679 19.136) rotate(-150)" fill="#374e5a"/>
        <ellipse id="Elipse_41" data-name="Elipse 41" cx="2.033" cy="3.521" rx="2.033" ry="3.521" transform="translate(8.892 19.84) rotate(-150)" fill="#2b3438"/>
        <path id="Trazado_1050" data-name="Trazado 1050" d="M381.172,897.407l-.9-.509-1.733,1.3.978.841Z" transform="translate(-367.368 -863.229)" fill="#4c585c"/>
        <path id="Trazado_1051" data-name="Trazado 1051" d="M426.616,879.04l-.278.211,1.667.724-.206,2.134-1.779,4.111-3.506,2.141.406.733,3.353-1,4.04-3.832,1.7-7.906Z" transform="translate(-422.515 -844.7)" fill="#374e5a"/>
        <path id="Trazado_1052" data-name="Trazado 1052" d="M423.237,845.346s.968,2.189,4.5,2.591l1.927-4.35-1.428-3.931h-.411Z" transform="translate(-420.231 -811.588)" fill="#b6cee6"/>
        <path id="Trazado_1053" data-name="Trazado 1053" d="M414.422,696.153l3.048-2.244,1.3-.044a37.436,37.436,0,0,1,.191,10.626c-.8,4.95-2.324,7.018-2.324,7.018l-4.915,2.31s1.753-9.2.038-12.3Z" transform="translate(-408.71 -680.06)" fill="#b6cee6"/>
        <path id="Trazado_1054" data-name="Trazado 1054" d="M415.28,731.522l4.5,2.591,2.667-5.368-4.993-1.626Z" transform="translate(-412.236 -710.062)" fill="#e0f0ff"/>
        <path id="Trazado_1055" data-name="Trazado 1055" d="M399.9,664.473l3.071,1.8,1.6-4.679-.147-3.682-2.171,2.567Z" transform="translate(-392.855 -647.622)" fill="#112b38"/>
        <path id="Trazado_1056" data-name="Trazado 1056" d="M413.2,597.272l-3.734,2.156.571-12.122,2.591-1.5Z" transform="translate(-402.417 -582.578)" fill="#112b38"/>
        <g id="Grupo_281" data-name="Grupo 281" transform="translate(3.403)">
          <path id="Trazado_1057" data-name="Trazado 1057" d="M383.963,614.213l-3.734,2.156.571-12.122,2.591-1.5Z" transform="translate(-373.727 -597.861)" fill="#374e5a"/>
          <g id="Grupo_280" data-name="Grupo 280" transform="translate(1.411)">
            <path id="Trazado_1058" data-name="Trazado 1058" d="M378.4,552.932l0,0a2.272,2.272,0,0,0-2.162.261l-.686.4a6.99,6.99,0,0,0-3.163,5.478v2.508s3.381,1.973,3.491,1.995,6.1-8.588,6.1-8.588Z" transform="translate(-372.39 -552.766)" fill="#b6cee6"/>
            <g id="Grupo_279" data-name="Grupo 279" clip-path="url(#clip-path-5)">
              <path id="Trazado_1059" data-name="Trazado 1059" d="M328.434,514.873,310.55,504.547l4.674-2.7,17.884,10.326Z" transform="translate(-317.466 -506.83)" fill="#e2effa"/>
            </g>
          </g>
          <path id="Trazado_1061" data-name="Trazado 1061" d="M370.1,577.918V575.41c0-2.017-1.416-2.834-3.163-1.826l-.686.4a6.99,6.99,0,0,0-3.163,5.478v2.508Z" transform="translate(-358.192 -571.158)" fill="#d1e4f5"/>
          <path id="Trazado_1062" data-name="Trazado 1062" d="M368.448,722.638l3.048-2.244,1.3-.044a37.435,37.435,0,0,1,.191,10.626c-.8,4.95-2.324,7.018-2.324,7.018l-4.916,2.31s1.753-9.2.038-12.3Z" transform="translate(-361.641 -703.954)" fill="#d1e4f5"/>
          <path id="Trazado_1063" data-name="Trazado 1063" d="M465.617,939.235l1.779-4.111Z" transform="translate(-465.514 -897.715)" fill="#384347"/>
          <path id="Trazado_1064" data-name="Trazado 1064" d="M423.421,935.125l4.3,2.518-1.779,4.111-4.3-2.518Z" transform="translate(-421.539 -897.715)" fill="#384347"/>
          <path id="Trazado_1065" data-name="Trazado 1065" d="M391.836,899.579l-2.7,2.057-1.042,2.1.406,1.173,2.744-2.581,1.778.323-1.779,4.111-3.506,2.141.406.733,3.353-1,4.04-3.832,1.7-7.906Z" transform="translate(-387.734 -863.229)" fill="#4c585c"/>
          <path id="Trazado_1066" data-name="Trazado 1066" d="M382.641,904.776l-2.7,2.057-1.042,2.1.406,1.173,2.744-2.581,1.778.323-1.779,4.111-3.506,2.141.406.733,3.353-1,4.04-3.832,1.7-7.906Z" transform="translate(-377.64 -867.917)" fill="#112b38"/>
        </g>
        <path id="Trazado_1067" data-name="Trazado 1067" d="M471.5,999.029l4.3,2.518.406.733-4.347-2.553Z" transform="translate(-471.502 -955.367)" fill="#112b38"/>
        <path id="Trazado_1068" data-name="Trazado 1068" d="M443.33,977.142l4.3,2.518-3.506,2.141-4.3-2.518Z" transform="translate(-439.824 -935.622)" fill="#374e5a"/>
        <path id="Trazado_1069" data-name="Trazado 1069" d="M462.411,945.319l.9.508-1.042,2.1-.9-.508Z" transform="translate(-457.61 -906.912)" fill="#3d4b4f"/>
        <path id="Trazado_1070" data-name="Trazado 1070" d="M469.167,968.438l-.407-1.173-.9-.508.406,1.173Z" transform="translate(-464.101 -926.252)" fill="#0b1c28"/>
        <ellipse id="Elipse_42" data-name="Elipse 42" cx="2.033" cy="3.521" rx="2.033" ry="3.521" transform="translate(11.727 21.522) rotate(-150)" fill="#112b38"/>
        <path id="Trazado_1071" data-name="Trazado 1071" d="M2.033,7.042c1.123,0,2.033-1.576,2.033-3.521S3.155,0,2.033,0,0,1.576,0,3.521.91,7.042,2.033,7.042Z" transform="matrix(-0.866, -0.5, 0.5, -0.866, 12.94, 22.226)" fill="#374e5a"/>
      </g>
    </g>
  </g>
</svg>
