<svg xmlns="http://www.w3.org/2000/svg" width="26.608" height="24.289" viewBox="0 0 26.608 24.289">
  <path id="Trazado_1596" data-name="Trazado 1596" d="M-1061.108,256.025h10.1a2.99,2.99,0,0,1,3.2,3.195q0,6.54,0,13.081a2.994,2.994,0,0,1-3.164,3.171c-1.769,0-3.539,0-5.308.009a.628.628,0,0,0-.424.192c-1.162,1.362-2.311,2.736-3.461,4.108a1.053,1.053,0,0,1-1.821.013c-1.165-1.374-2.325-2.752-3.5-4.118a.633.633,0,0,0-.423-.2c-1.791-.013-3.581-.006-5.372-.009a2.986,2.986,0,0,1-3.135-3.133q0-6.62,0-13.241a2.989,2.989,0,0,1,3.068-3.072q5.116,0,10.232,0Zm0,21.658c.093-.1.159-.172.22-.244.993-1.171,1.99-2.337,2.974-3.515a1.3,1.3,0,0,1,1.079-.5c1.951.012,3.9.006,5.852,0,.784,0,1.136-.35,1.136-1.127q0-6.54,0-13.081c0-.8-.344-1.142-1.151-1.142l-20.209,0c-.8,0-1.151.347-1.151,1.143q0,6.525,0,13.049c0,.817.341,1.158,1.169,1.159,1.95,0,3.9.006,5.852,0a1.22,1.22,0,0,1,1.025.481c.274.34.562.669.845,1Z" transform="translate(1074.409 -256.023)" fill="#789d9e"/>
</svg>
