<svg id="Grupo_991" data-name="Grupo 991" xmlns="http://www.w3.org/2000/svg" width="28.601" height="21.147" viewBox="0 0 28.601 21.147">
  <path id="Trazado_1597" data-name="Trazado 1597" d="M-1633.788,270.3a5.435,5.435,0,0,1-.486.633,12.637,12.637,0,0,1-6.532,3.578,15.322,15.322,0,0,1-1.719.157.858.858,0,0,1-.76-.389c-.67-.858-1.35-1.709-2.016-2.57a.389.389,0,0,0-.4-.169,22.281,22.281,0,0,1-4.736,0,.455.455,0,0,0-.467.2c-.641.833-1.3,1.649-1.944,2.484a1.075,1.075,0,0,1-.958.448,11.087,11.087,0,0,1-5.947-1.992,13.65,13.65,0,0,1-2.34-1.935.934.934,0,0,1-.293-.754,36.278,36.278,0,0,1,2.6-11.592c.3-.688.686-1.339,1.045-2a.979.979,0,0,1,.313-.347,16.243,16.243,0,0,1,5.413-2.36,10.978,10.978,0,0,1,1.214-.16.824.824,0,0,1,.858.5c.4.775.813,1.547,1.208,2.326a.337.337,0,0,0,.365.212q1.284-.019,2.568,0a.337.337,0,0,0,.359-.22c.388-.762.795-1.515,1.182-2.277a.9.9,0,0,1,.945-.542,11.054,11.054,0,0,1,3.977,1.115c.846.4,1.659.877,2.474,1.341a1.329,1.329,0,0,1,.442.447,21.471,21.471,0,0,1,2.4,5.979,42.178,42.178,0,0,1,1.184,7.033,2.058,2.058,0,0,0,.049.24Zm-9.767.918.753.959c.714.907.714.906,1.843.664a11.224,11.224,0,0,0,5.333-2.936.467.467,0,0,0,.108-.34,40.636,40.636,0,0,0-1.1-6.6,20.658,20.658,0,0,0-2.075-5.394.978.978,0,0,0-.344-.345c-.615-.347-1.232-.693-1.866-1a10.856,10.856,0,0,0-2.769-.924c-.112-.021-.307-.016-.343.047-.266.454-.5.926-.756,1.412.159.03.276.054.395.073a17.725,17.725,0,0,1,4.636,1.378.841.841,0,0,1,.487,1.122.826.826,0,0,1-1.146.413,18.133,18.133,0,0,0-7.125-1.527,18.738,18.738,0,0,0-8.242,1.522.836.836,0,0,1-1.155-.4.837.837,0,0,1,.47-1.128,16.248,16.248,0,0,1,3.24-1.1c.585-.134,1.176-.243,1.792-.369-.218-.419-.442-.814-.63-1.226a.354.354,0,0,0-.474-.228,12.85,12.85,0,0,0-3.615,1.359c-1.513.838-1.177.419-1.945,2.07a32.7,32.7,0,0,0-2.583,10.909.392.392,0,0,0,.122.281c.332.3.666.6,1.021.866a10.452,10.452,0,0,0,5,2.179.717.717,0,0,0,.793-.325c.331-.478.713-.922,1.1-1.409-.149-.037-.253-.064-.358-.088a15.433,15.433,0,0,1-5.07-2.039.851.851,0,0,1-.333-1.2.838.838,0,0,1,1.222-.22,13.893,13.893,0,0,0,4.638,1.846,20.989,20.989,0,0,0,7.437.259,14.789,14.789,0,0,0,6.115-2.126.826.826,0,0,1,1.178.229.817.817,0,0,1-.267,1.169c-.521.322-1.055.629-1.605.9A16.678,16.678,0,0,1-1643.554,271.213Z" transform="translate(1662.389 -253.523)" fill="#789d9e"/>
  <path id="Trazado_1598" data-name="Trazado 1598" d="M-1563.976,358.783a3.307,3.307,0,0,1,1.332-2.645,2.773,2.773,0,0,1,3.8.423,3.54,3.54,0,0,1-.049,4.689,2.832,2.832,0,0,1-4.568-.524A3.577,3.577,0,0,1-1563.976,358.783Zm1.677.082-.073.026a5.407,5.407,0,0,0,.388,1.022,1.159,1.159,0,0,0,2.027-.005,1.9,1.9,0,0,0-.1-2.192,1.153,1.153,0,0,0-1.837-.011A1.811,1.811,0,0,0-1562.3,358.865Z" transform="translate(1571.321 -347.956)" fill="#789d9e"/>
  <path id="Trazado_1599" data-name="Trazado 1599" d="M-1451.888,358.684a3.569,3.569,0,0,1-1.256,2.97,2.789,2.789,0,0,1-3.833-.3,3.549,3.549,0,0,1-.177-4.541,2.85,2.85,0,0,1,4.924.672A7.341,7.341,0,0,1-1451.888,358.684Zm-1.68.265a1.791,1.791,0,0,0-.463-1.207,1.134,1.134,0,0,0-1.666-.056,1.859,1.859,0,0,0,.035,2.607,1.125,1.125,0,0,0,1.565-.02A1.8,1.8,0,0,0-1453.568,358.949Z" transform="translate(1473.151 -348.053)" fill="#789d9e"/>
</svg>
