<svg xmlns="http://www.w3.org/2000/svg" width="23.62" height="23.465" viewBox="0 0 23.62 23.465">
  <g id="Grupo_998" data-name="Grupo 998" transform="translate(0)">
    <g id="Grupo_997" data-name="Grupo 997">
      <path id="Trazado_1600" data-name="Trazado 1600" d="M-1658.739,746.239c2.346.066,4.665.115,6.982.2a4.815,4.815,0,0,1,4.569,4.649c.072,2.247.261,4.494.249,6.74-.013,2.5-.121,5-.325,7.489a4.829,4.829,0,0,1-4.6,4.25c-4.255.2-8.511.152-12.767.044a9.712,9.712,0,0,1-2.318-.285,4.643,4.643,0,0,1-3.367-4.214c-.119-2.245-.25-4.494-.247-6.741,0-2.468.116-4.938.25-7.4a4.866,4.866,0,0,1,4.792-4.543C-1663.248,746.374-1660.98,746.3-1658.739,746.239Zm-.022,1.9c-2.257.075-4.525.14-6.791.228a2.972,2.972,0,0,0-2.83,2.778c-.12,2.346-.246,4.694-.249,7.041,0,2.247.132,4.495.245,6.74a2.957,2.957,0,0,0,2.755,2.714,80.514,80.514,0,0,0,8.3.242c1.875-.057,3.75-.152,5.619-.311a2.475,2.475,0,0,0,2.378-1.811,4.319,4.319,0,0,0,.2-1c.1-2.376.255-4.754.259-7.131,0-2.156-.149-4.313-.257-6.469a2.993,2.993,0,0,0-2.819-2.793C-1654.213,748.272-1656.481,748.212-1658.761,748.137Z" transform="translate(1670.559 -746.239)" fill="#789d9e"/>
      <path id="Trazado_1601" data-name="Trazado 1601" d="M-1590.034,819.448c.633.141,1.275.25,1.9.431a.951.951,0,0,1,.687,1.265.981.981,0,0,1-1.316.551,3.851,3.851,0,0,0-4.687,1.751,3.842,3.842,0,0,0,.3,4.2,3.791,3.791,0,0,0,4.047,1.4,3.755,3.755,0,0,0,2.826-3.115,3.887,3.887,0,0,0-.162-1.9,1.56,1.56,0,0,1-.051-.732.911.911,0,0,1,.857-.685.968.968,0,0,1,.958.643,5.653,5.653,0,0,1,.043,4.006,5.787,5.787,0,0,1-5.894,3.831,5.809,5.809,0,0,1-5.268-4.874,5.794,5.794,0,0,1,5.751-6.685Z" transform="translate(1601.887 -813.556)" fill="#789d9e"/>
    </g>
    <path id="Trazado_1602" data-name="Trazado 1602" d="M-1450.132,797.49a.969.969,0,0,1-.955.965.966.966,0,0,1-.971-.977.966.966,0,0,1,.969-.949A.965.965,0,0,1-1450.132,797.49Z" transform="translate(1469.643 -792.481)" fill="#789d9e"/>
  </g>
</svg>
