<svg id="Grupo_992" data-name="Grupo 992" xmlns="http://www.w3.org/2000/svg" width="29.411" height="20.878" viewBox="0 0 29.411 20.878">
  <path id="Trazado_1603" data-name="Trazado 1603" d="M-1159.363,762.8c2.5.084,5.584.156,8.662.3a5.823,5.823,0,0,1,5.257,4.99,37.19,37.19,0,0,1,.32,7.387,28.329,28.329,0,0,1-.458,3.861,5.393,5.393,0,0,1-5.175,4.118c-3.145.076-6.29.22-9.435.221-2.941,0-5.883-.116-8.822-.243a5.468,5.468,0,0,1-5.245-5.408c-.042-1.437-.2-2.872-.2-4.309,0-1.5.1-3,.194-4.5a7.837,7.837,0,0,1,.281-1.932,5.656,5.656,0,0,1,4.483-4.145,17.573,17.573,0,0,1,2.762-.169C-1164.473,762.907-1162.208,762.865-1159.363,762.8Zm-.439,18.918c3.034-.1,6.083-.2,9.131-.315a3.342,3.342,0,0,0,3.092-2.535,18.314,18.314,0,0,0,.27-2.1,29.8,29.8,0,0,0,.059-5.886,22.649,22.649,0,0,0-.333-2.808,3.7,3.7,0,0,0-3.639-2.965c-1.084-.037-2.169-.076-3.253-.106q-7.009-.191-14.015.112a3.772,3.772,0,0,0-3.634,3.313,35.419,35.419,0,0,0-.254,4.144c0,1.888.1,3.777.2,5.663a3.387,3.387,0,0,0,3.242,3.171C-1165.9,781.53-1162.858,781.616-1159.8,781.719Z" transform="translate(1174.457 -762.801)" fill="#789d9e"/>
  <path id="Trazado_1604" data-name="Trazado 1604" d="M-1048.347,837.953l4.109-2.127c-.128-.071-.221-.126-.317-.175q-2.589-1.332-5.179-2.664a1.037,1.037,0,0,1-.608-1.241,1.022,1.022,0,0,1,1.5-.621c1.215.615,2.424,1.243,3.635,1.867,1.182.609,2.361,1.224,3.547,1.827a1.073,1.073,0,0,1,.677.973,1.078,1.078,0,0,1-.673,1.011c-2.38,1.234-4.757,2.476-7.138,3.707a1.036,1.036,0,0,1-1.614-.973q-.009-1.852.005-3.705a.994.994,0,0,1,.842-1.025.992.992,0,0,1,1.12.609,1.661,1.661,0,0,1,.092.565C-1048.34,836.616-1048.347,837.249-1048.347,837.953Z" transform="translate(1061.095 -825.124)" fill="#789d9e"/>
</svg>
