<svg xmlns="http://www.w3.org/2000/svg" width="25.126" height="25.08" viewBox="0 0 25.126 25.08">
  <path id="Trazado_1605" data-name="Trazado 1605" d="M-636.556,759.684V753.9c-.31,0-.609,0-.907,0a.962.962,0,0,1-1.01-1q-.008-1.9,0-3.8a.954.954,0,0,1,.994-.985c.3-.005.6,0,.936,0,0-.57-.023-1.121.006-1.668a9.669,9.669,0,0,1,.189-1.966,4.276,4.276,0,0,1,4.091-3.113c1.127-.01,2.254-.005,3.381,0a.958.958,0,0,1,1.025,1.015q.007,1.883,0,3.766a.956.956,0,0,1-1.008,1c-.6.005-1.207,0-1.811.006-.01,0-.02,0-.054.009v.948h1.822a.973.973,0,0,1,1.021,1.318c-.2.808-.4,1.615-.607,2.422-.107.428-.207.858-.323,1.284a.958.958,0,0,1-.987.764c-.3,0-.6,0-.95,0v.328c0,.823,0,1.647,0,2.47a.976.976,0,0,1-.956,1.057.98.98,0,0,1-.976-1.067q0-1.823,0-3.645a.971.971,0,0,1,1.061-1.071c.351,0,.7,0,1.081,0l.483-1.927c-.537,0-1.037,0-1.538,0a.981.981,0,0,1-1.087-1.079c0-.6-.006-1.205,0-1.808a1.919,1.919,0,0,1,1.934-1.934c.31,0,.619,0,.945,0v-1.9a1.451,1.451,0,0,0-.194-.025c-.734,0-1.469-.009-2.2,0a2.4,2.4,0,0,0-2.414,2.416c-.009,1.085,0,2.169,0,3.254a.977.977,0,0,1-1.087,1.077c-.269,0-.539,0-.826,0v1.928c.28,0,.567,0,.854,0a.972.972,0,0,1,1.06,1.045q0,3.781,0,7.562a.963.963,0,0,1-1.039,1.034c-2.545,0-5.091.014-7.637,0a4.8,4.8,0,0,1-4.845-4.844q-.016-7.713,0-15.426a4.8,4.8,0,0,1,4.8-4.794q7.727-.016,15.454,0a4.79,4.79,0,0,1,4.852,4.835q.021,7.728,0,15.456a4.8,4.8,0,0,1-4.791,4.774c-1.268.01-2.535,0-3.8,0a.979.979,0,0,1-1.06-.954.973.973,0,0,1,1.066-.975c1.217,0,2.435,0,3.652,0a2.891,2.891,0,0,0,3.007-3q0-7.607,0-15.215a2.889,2.889,0,0,0-3.005-3q-7.621,0-15.243,0a2.89,2.89,0,0,0-3,3q0,7.607,0,15.215a2.888,2.888,0,0,0,2.981,2.993c2.133,0,4.266,0,6.4,0Z" transform="translate(648.14 -736.538)" fill="#789d9e"/>
</svg>
