<svg xmlns="http://www.w3.org/2000/svg" width="39.837" height="43.614" viewBox="0 0 39.837 43.614">
  <g id="Grupo_894" data-name="Grupo 894" transform="translate(-2347.562 -1746.042)">
    <path id="Trazado_1519" data-name="Trazado 1519" d="M2388.311,1821.8h-18.449a6.413,6.413,0,0,1-6.4-6.407v-19.471a6.439,6.439,0,0,1,3.642-5.773.81.81,0,1,1,.7,1.46,4.812,4.812,0,0,0-2.722,4.313v19.471a4.792,4.792,0,0,0,4.785,4.788h18.449a4.792,4.792,0,0,0,4.786-4.788v-19.471a4.811,4.811,0,0,0-2.723-4.313.81.81,0,0,1,.7-1.46,6.439,6.439,0,0,1,3.643,5.773v19.471A6.413,6.413,0,0,1,2388.311,1821.8Z" transform="translate(-11.605 -32.145)" fill="#3a6060"/>
    <path id="Trazado_1520" data-name="Trazado 1520" d="M2392.426,1792.733h-9.481a7.718,7.718,0,0,1-7.709-7.71V1774.87a2.837,2.837,0,0,1,2.834-2.834H2397.3a2.837,2.837,0,0,1,2.834,2.834v10.153A7.718,7.718,0,0,1,2392.426,1792.733Zm-14.357-19.078a1.216,1.216,0,0,0-1.214,1.215v10.153a6.1,6.1,0,0,0,6.09,6.09h9.481a6.1,6.1,0,0,0,6.09-6.09V1774.87a1.216,1.216,0,0,0-1.215-1.215Z" transform="translate(-20.204 -18.978)" fill="#3a6060"/>
    <g id="Grupo_894-2" data-name="Grupo 894" transform="translate(2347.562 1772.118)">
      <path id="Trazado_1521" data-name="Trazado 1521" d="M2351.7,1856.17h-.525a3.612,3.612,0,0,1-3.608-3.608v-6.3a3.612,3.612,0,0,1,3.608-3.608h.525a3.511,3.511,0,0,1,1.254.23.81.81,0,1,1-.576,1.514,1.862,1.862,0,0,0-.678-.125h-.525a1.991,1.991,0,0,0-1.989,1.989v6.3a1.991,1.991,0,0,0,1.989,1.989h.525a1.942,1.942,0,0,0,.792-.164.81.81,0,0,1,.667,1.475A3.562,3.562,0,0,1,2351.7,1856.17Z" transform="translate(-2347.562 -1842.658)" fill="#3a6060"/>
      <path id="Trazado_1522" data-name="Trazado 1522" d="M2475.142,1856.17h-.523a3.582,3.582,0,0,1-1.459-.307.81.81,0,1,1,.664-1.477,1.951,1.951,0,0,0,.795.165h.523a1.991,1.991,0,0,0,1.989-1.989v-6.3a1.991,1.991,0,0,0-1.989-1.989h-.523a1.865,1.865,0,0,0-.678.125.81.81,0,0,1-.576-1.514,3.509,3.509,0,0,1,1.254-.23h.523a3.612,3.612,0,0,1,3.608,3.608v6.3A3.612,3.612,0,0,1,2475.142,1856.17Z" transform="translate(-2438.912 -1842.658)" fill="#3a6060"/>
    </g>
    <g id="Grupo_898" data-name="Grupo 898" transform="translate(2359.957 1767.456)">
      <g id="Grupo_895" data-name="Grupo 895">
        <path id="Trazado_1523" data-name="Trazado 1523" d="M2396.291,1833.8a.809.809,0,0,1-.81-.81v-5.712a.81.81,0,1,1,1.619,0v5.712A.81.81,0,0,1,2396.291,1833.8Z" transform="translate(-2394.943 -1826.174)" fill="#3a6060"/>
        <path id="Trazado_1524" data-name="Trazado 1524" d="M2395.368,1827H2394.3a.81.81,0,0,1,0-1.619h1.071a.81.81,0,1,1,0,1.619Z" transform="translate(-2393.487 -1825.384)" fill="#3a6060"/>
      </g>
      <g id="Grupo_896" data-name="Grupo 896" transform="translate(5.69 2.799)">
        <path id="Trazado_1525" data-name="Trazado 1525" d="M2419.187,1843.085a.81.81,0,0,1-.81-.81v-5.712a.81.81,0,1,1,1.619,0v5.712A.81.81,0,0,1,2419.187,1843.085Z" transform="translate(-2417.35 -1835.754)" fill="#3a6060"/>
        <path id="Trazado_1526" data-name="Trazado 1526" d="M2417.43,1854.889h-2.049a.81.81,0,0,1,0-1.62h2.049a.81.81,0,0,1,0,1.62Z" transform="translate(-2414.571 -1848.542)" fill="#3a6060"/>
      </g>
      <g id="Grupo_897" data-name="Grupo 897" transform="translate(12.359)">
        <path id="Trazado_1527" data-name="Trazado 1527" d="M2442.088,1833.8a.81.81,0,0,1-.81-.81v-5.712a.81.81,0,0,1,1.62,0v5.712A.81.81,0,0,1,2442.088,1833.8Z" transform="translate(-2440.738 -1826.174)" fill="#3a6060"/>
        <path id="Trazado_1528" data-name="Trazado 1528" d="M2441.159,1827h-1.071a.81.81,0,0,1,0-1.619h1.071a.81.81,0,1,1,0,1.619Z" transform="translate(-2439.278 -1825.384)" fill="#3a6060"/>
      </g>
    </g>
    <path id="Trazado_1529" data-name="Trazado 1529" d="M2403.709,1869.923h-15.741a1.57,1.57,0,0,1-1.568-1.567v-1.342a.81.81,0,1,1,1.619,0v1.29h15.638v-1.29a.81.81,0,1,1,1.619,0v1.342A1.57,1.57,0,0,1,2403.709,1869.923Z" transform="translate(-28.356 -87.73)" fill="#3a6060"/>
    <g id="Grupo_900" data-name="Grupo 900" transform="translate(2359.514 1746.042)">
      <path id="Trazado_1530" data-name="Trazado 1530" d="M2435.557,1759a.81.81,0,0,1-.8-.715,5.854,5.854,0,0,0-3.3-4.784.81.81,0,0,1,.7-1.459,7.427,7.427,0,0,1,4.208,6.056.81.81,0,0,1-.71.9A.869.869,0,0,1,2435.557,1759Z" transform="translate(-2420.427 -1750.365)" fill="#3a6060"/>
      <path id="Trazado_1531" data-name="Trazado 1531" d="M2392.657,1759a.861.861,0,0,1-.095-.005.809.809,0,0,1-.71-.9,7.424,7.424,0,0,1,4.208-6.056.81.81,0,0,1,.7,1.459,5.854,5.854,0,0,0-3.3,4.784A.81.81,0,0,1,2392.657,1759Z" transform="translate(-2391.846 -1750.365)" fill="#3a6060"/>
      <g id="Grupo_899" data-name="Grupo 899" transform="translate(3.686)">
        <path id="Trazado_1532" data-name="Trazado 1532" d="M2407.139,1749.757a1.633,1.633,0,0,1-1.476-2.338,1.62,1.62,0,0,1,.928-.835,9.694,9.694,0,0,1,6.392,0,1.633,1.633,0,0,1-.547,3.17,1.637,1.637,0,0,1-.548-.092,6.379,6.379,0,0,0-4.2,0A1.63,1.63,0,0,1,2407.139,1749.757Zm2.624-2.094a7.875,7.875,0,0,0-2.632.448l.281.789-.271-.763a8.036,8.036,0,0,1,5.288,0h.006a.015.015,0,0,0,.009,0A7.793,7.793,0,0,0,2409.763,1747.663Z" transform="translate(-2405.502 -1746.042)" fill="#3a6060"/>
      </g>
    </g>
  </g>
</svg>
