<?xml version="1.0" encoding="UTF-8" standalone="no"?>
<svg
   xmlns:dc="http://purl.org/dc/elements/1.1/"
   xmlns:cc="http://creativecommons.org/ns#"
   xmlns:rdf="http://www.w3.org/1999/02/22-rdf-syntax-ns#"
   xmlns:svg="http://www.w3.org/2000/svg"
   xmlns="http://www.w3.org/2000/svg"
   xmlns:sodipodi="http://sodipodi.sourceforge.net/DTD/sodipodi-0.dtd"
   xmlns:inkscape="http://www.inkscape.org/namespaces/inkscape"
   id="highlight_off_black_24dp"
   width="24"
   height="24"
   viewBox="0 0 24 24"
   version="1.1"
   sodipodi:docname="highlight_off_black_24dp.svg"
   inkscape:version="1.0.2-2 (e86c870879, 2021-01-15)">
  <metadata
     id="metadata10">
    <rdf:RDF>
      <cc:Work
         rdf:about="">
        <dc:format>image/svg+xml</dc:format>
        <dc:type
           rdf:resource="http://purl.org/dc/dcmitype/StillImage" />
      </cc:Work>
    </rdf:RDF>
  </metadata>
  <defs
     id="defs8" />
  <sodipodi:namedview
     pagecolor="#ffffff"
     bordercolor="#666666"
     borderopacity="1"
     objecttolerance="10"
     gridtolerance="10"
     guidetolerance="10"
     inkscape:pageopacity="0"
     inkscape:pageshadow="2"
     inkscape:window-width="1920"
     inkscape:window-height="1017"
     id="namedview6"
     showgrid="false"
     inkscape:zoom="35.416667"
     inkscape:cx="12"
     inkscape:cy="12"
     inkscape:window-x="-8"
     inkscape:window-y="-8"
     inkscape:window-maximized="1"
     inkscape:current-layer="highlight_off_black_24dp" />
  <circle
     id="Elipse_53"
     data-name="Elipse 53"
     cx="12"
     cy="12"
     r="12"
     fill="#0b1c28"
     style="fill:#0b1c28;fill-opacity:0.01328904" />
  <path
     id="Trazado_1446"
     data-name="Trazado 1446"
     d="M0,0H24V24H0Z"
     fill="none" />
  <path
     id="Trazado_1447"
     data-name="Trazado 1447"
     d="M13.89,8.7,12,10.59,10.11,8.7A1,1,0,0,0,8.7,10.11L10.59,12,8.7,13.89a1,1,0,0,0,1.41,1.41L12,13.41l1.89,1.89a1,1,0,0,0,1.41-1.41L13.41,12l1.89-1.89a1,1,0,0,0,0-1.41A1.014,1.014,0,0,0,13.89,8.7ZM12,2A10,10,0,1,0,22,12,9.991,9.991,0,0,0,12,2Zm0,18a8,8,0,1,1,8-8A8.011,8.011,0,0,1,12,20Z"
     fill="#cba32f" />
</svg>
