<svg xmlns="http://www.w3.org/2000/svg" width="25.117" height="21.755" viewBox="0 0 25.117 21.755">
  <path id="Trazado_1595" data-name="Trazado 1595" d="M-585.784,244.493c-.6-.43-.677-.77-.342-1.584-.6.153-.96-.192-1.354-.553a3.888,3.888,0,0,0-4-.9,3.628,3.628,0,0,0-2.57,2.924,5.023,5.023,0,0,0,.008,1.578,1.01,1.01,0,0,1-1.057,1.264.975.975,0,0,1-.867-.761,5.836,5.836,0,0,1,3.933-6.9,5.909,5.909,0,0,1,5.708,1.182.409.409,0,0,0,.461.1c.609-.254,1.234-.475,1.823-.77a1.062,1.062,0,0,1,1.186-.033.956.956,0,0,1,.36,1.148c-.109.373-.233.742-.357,1.132a1.034,1.034,0,0,1,.252,1.335,4.365,4.365,0,0,1-1.215,1.734.724.724,0,0,0-.277.638,14.364,14.364,0,0,1-4.446,10.644,14.924,14.924,0,0,1-7.794,4.13,14.424,14.424,0,0,1-7.908-.785,27.267,27.267,0,0,1-2.738-1.313.934.934,0,0,1-.538-1.123.976.976,0,0,1,1.048-.724,13.56,13.56,0,0,0,4.231-.727c.1-.035.2-.079.27-.105-.492-.388-1.008-.751-1.472-1.172a5.9,5.9,0,0,1-1.428-2.1,1.114,1.114,0,0,1,.128-1.208,1.352,1.352,0,0,1-.247-.16,5.623,5.623,0,0,1-1.668-3.8,1.08,1.08,0,0,1,.566-1.124,5.12,5.12,0,0,1-.716-2.4,5.027,5.027,0,0,1,1.015-3.3.953.953,0,0,1,1.534.046,12.146,12.146,0,0,0,2.238,2.183,11.775,11.775,0,0,0,4.284,2,.985.985,0,0,1,.675,1.508,1,1,0,0,1-1.142.4,13.4,13.4,0,0,1-6.386-3.579,2.363,2.363,0,0,1-.2-.276,2.453,2.453,0,0,0-.031,1.322,5.145,5.145,0,0,0,1.518,2.618c.1.1.206.192.3.292a.934.934,0,0,1,.221,1.052.931.931,0,0,1-.915.57,4.454,4.454,0,0,0-.754.008c.237.339.448.7.717,1.012a4.08,4.08,0,0,0,2.1,1.287.974.974,0,0,1,.822.911.922.922,0,0,1-.554.923c-.285.139-.59.238-.915.365a3.827,3.827,0,0,0,2.581,1.288c.14.012.283.005.422.026a.928.928,0,0,1,.809.674.921.921,0,0,1-.312,1.028,9.244,9.244,0,0,1-4.194,2c.171.063.272.108.378.139a12.206,12.206,0,0,0,11.536-2.18,12.653,12.653,0,0,0,4.463-6.426,12.914,12.914,0,0,0,.511-4.464A1.108,1.108,0,0,1-585.784,244.493Z" transform="translate(607.557 -239.283)" fill="#789d9e"/>
</svg>
