<svg xmlns="http://www.w3.org/2000/svg" width="64" height="64" viewBox="0 0 64 64">
  <g id="Grupo_926" data-name="Grupo 926" transform="translate(-16 -115)">
    <g id="user_photo" data-name="user photo" transform="translate(16 115)">
      <rect id="avatar" width="64" height="64" rx="12" fill="#0b1c28"/>
    </g>
    <g id="user" transform="translate(32 128)">
      <path id="Trazado_1450" data-name="Trazado 1450" d="M96.346,18.628a9.012,9.012,0,0,0,6.586-2.729,9.012,9.012,0,0,0,2.729-6.586,9.014,9.014,0,0,0-2.729-6.586,9.312,9.312,0,0,0-13.171,0,9.013,9.013,0,0,0-2.729,6.585A9.012,9.012,0,0,0,89.76,15.9,9.014,9.014,0,0,0,96.346,18.628Zm0,0" transform="translate(-80.458)" fill="#112b38"/>
      <path id="Trazado_1451" data-name="Trazado 1451" d="M32.186,258.373a23,23,0,0,0-.313-2.444,19.253,19.253,0,0,0-.6-2.457,12.135,12.135,0,0,0-1.01-2.291,8.647,8.647,0,0,0-1.523-1.985,6.715,6.715,0,0,0-2.188-1.375,7.561,7.561,0,0,0-2.793-.505,2.835,2.835,0,0,0-1.514.642c-.454.3-.985.638-1.577,1.017a9.036,9.036,0,0,1-2.041.9,7.924,7.924,0,0,1-4.991,0,9.015,9.015,0,0,1-2.039-.9c-.587-.375-1.118-.717-1.578-1.017a2.831,2.831,0,0,0-1.513-.642,7.551,7.551,0,0,0-2.793.506A6.709,6.709,0,0,0,3.524,249.2,8.647,8.647,0,0,0,2,251.181a12.158,12.158,0,0,0-1.01,2.292,19.3,19.3,0,0,0-.6,2.457,22.925,22.925,0,0,0-.313,2.444c-.051.74-.077,1.508-.077,2.284a6.421,6.421,0,0,0,1.907,4.858,6.865,6.865,0,0,0,4.914,1.793H25.442a6.864,6.864,0,0,0,4.914-1.793,6.419,6.419,0,0,0,1.907-4.858C32.264,259.878,32.237,259.109,32.186,258.373Zm0,0" transform="translate(0 -228.636)" fill="#112b38"/>
    </g>
  </g>
</svg>
