<svg id="loading" xmlns="http://www.w3.org/2000/svg" width="38.695" height="38.695" viewBox="0 0 38.695 38.695">
  <path id="Trazado_25" data-name="Trazado 25" d="M225.872,7.177A1.839,1.839,0,0,1,224,5.305V1.872a1.872,1.872,0,1,1,3.745,0V5.305A1.878,1.878,0,0,1,225.872,7.177Z" transform="translate(-206.525)" fill="#4ad594"/>
  <path id="Trazado_26" data-name="Trazado 26" d="M225.872,411.177A1.839,1.839,0,0,1,224,409.3v-3.433a1.872,1.872,0,1,1,3.745,0V409.3A1.839,1.839,0,0,1,225.872,411.177Z" transform="translate(-206.525 -372.482)" fill="#4ad594" opacity="0.502"/>
  <path id="Trazado_27" data-name="Trazado 27" d="M115.692,37.212a1.881,1.881,0,0,1-1.623-.936l-1.685-2.933a1.873,1.873,0,1,1,3.245-1.872l1.685,2.933a1.911,1.911,0,0,1-.687,2.559A2.314,2.314,0,0,1,115.692,37.212Z" transform="translate(-103.397 -28.163)" fill="#4ad594" opacity="0"/>
  <path id="Trazado_28" data-name="Trazado 28" d="M318.092,386.812a1.881,1.881,0,0,1-1.623-.936l-1.685-2.933a1.873,1.873,0,0,1,3.245-1.872L319.714,384a1.911,1.911,0,0,1-.687,2.559A1.761,1.761,0,0,1,318.092,386.812Z" transform="translate(-290.006 -350.489)" fill="#4ad594" opacity="0.605"/>
  <path id="Trazado_29" data-name="Trazado 29" d="M35.34,117.564a1.761,1.761,0,0,1-.936-.25l-2.933-1.685a1.873,1.873,0,0,1,1.872-3.245l2.933,1.685a1.911,1.911,0,0,1,.687,2.559A1.881,1.881,0,0,1,35.34,117.564Z" transform="translate(-28.163 -103.397)" fill="#4ad594" opacity="0.092"/>
  <path id="Trazado_30" data-name="Trazado 30" d="M385,319.964a1.761,1.761,0,0,1-.936-.25l-3-1.685a1.873,1.873,0,0,1,1.872-3.245l2.933,1.685a1.911,1.911,0,0,1,.687,2.559A1.716,1.716,0,0,1,385,319.964Z" transform="translate(-350.489 -290.006)" fill="#4ad594" opacity="0.699"/>
  <path id="Trazado_31" data-name="Trazado 31" d="M5.305,227.745H1.872a1.872,1.872,0,1,1,0-3.745H5.305a1.839,1.839,0,0,1,1.872,1.872A1.878,1.878,0,0,1,5.305,227.745Z" transform="translate(0 -206.525)" fill="#4ad594" opacity="0.203"/>
  <path id="Trazado_32" data-name="Trazado 32" d="M409.3,227.745h-3.433a1.872,1.872,0,1,1,0-3.745H409.3a1.872,1.872,0,1,1,0,3.745Z" transform="translate(-372.482 -206.525)" fill="#4ad594" opacity="0.799"/>
  <path id="Trazado_33" data-name="Trazado 33" d="M31.607,319.964a1.881,1.881,0,0,1-1.623-.936,1.911,1.911,0,0,1,.687-2.559l2.933-1.685a1.873,1.873,0,0,1,1.872,3.245l-2.933,1.685A1.5,1.5,0,0,1,31.607,319.964Z" transform="translate(-27.425 -290.006)" fill="#4ad594" opacity="0.295"/>
  <path id="Trazado_34" data-name="Trazado 34" d="M382.007,117.564a1.881,1.881,0,0,1-1.623-.936,1.911,1.911,0,0,1,.687-2.559L384,112.384a1.873,1.873,0,0,1,1.872,3.245l-2.933,1.685A1.761,1.761,0,0,1,382.007,117.564Z" transform="translate(-350.489 -103.397)" fill="#4ad594" opacity="0.891"/>
  <path id="Trazado_35" data-name="Trazado 35" d="M114.007,386.812a1.761,1.761,0,0,1-.936-.25,1.911,1.911,0,0,1-.687-2.559l1.685-2.933a1.873,1.873,0,0,1,3.245,1.872l-1.685,2.933A1.881,1.881,0,0,1,114.007,386.812Z" transform="translate(-103.397 -350.489)" fill="#4ad594" opacity="0.401"/>
  <path id="Trazado_36" data-name="Trazado 36" d="M316.407,37.212a1.761,1.761,0,0,1-.936-.25,1.911,1.911,0,0,1-.687-2.559l1.685-2.933a1.873,1.873,0,0,1,3.245,1.872l-1.685,2.933A2.027,2.027,0,0,1,316.407,37.212Z" transform="translate(-290.006 -28.163)" fill="#4ad594"/>
</svg>
