<svg xmlns="http://www.w3.org/2000/svg" width="14.699" height="17.019" viewBox="0 0 14.699 17.019">
  <path id="path" d="M19.7,5.151V12.7a3.352,3.352,0,0,1-1.269,2.5l-4.678,3.387a2.491,2.491,0,0,1-2.806,0L6.269,15.2A3.362,3.362,0,0,1,5,12.7V5.151A2.458,2.458,0,0,1,6.631,2.885,12.052,12.052,0,0,1,8.217,2.44a19.637,19.637,0,0,1,8.265,0,12.029,12.029,0,0,1,1.59.447A2.476,2.476,0,0,1,19.7,5.151Zm-13.152,0V12.7a1.849,1.849,0,0,0,.629,1.247l4.677,3.388a.955.955,0,0,0,.991,0l4.677-3.388a1.834,1.834,0,0,0,.629-1.247V5.151a.938.938,0,0,0-.567-.8l-.048-.017q-.169-.062-.341-.114-.517-.158-1.046-.273a18.091,18.091,0,0,0-7.6,0q-.529.115-1.046.273c-.174.054-.289.094-.341.114L7.1,4.358a.922.922,0,0,0-.557.794ZM9.8,9.576l1.387,1.387L14.9,7.255a.774.774,0,1,1,1.094,1.094L11.736,12.6a.774.774,0,0,1-1.094,0L8.708,10.67A.774.774,0,1,1,9.8,9.576Z" transform="translate(-5 -2)" fill="#fff"/>
</svg>
