<svg xmlns="http://www.w3.org/2000/svg" width="33.617" height="52.098" viewBox="0 0 33.617 52.098">
  <g id="Pasport" transform="translate(-2749.702 -843.533)">
    <g id="Grupo_824" data-name="Grupo 824" transform="translate(2752.181 843.533)">
      <path id="Trazado_1470" data-name="Trazado 1470" d="M2793.607,849.7a.528.528,0,0,1-.517-.422l-.646-3.168a1.9,1.9,0,0,0-2.241-1.481l-24.6,5.022a.528.528,0,1,1-.211-1.034l24.6-5.022a2.958,2.958,0,0,1,3.487,2.3l.647,3.168a.529.529,0,0,1-.518.633Z" transform="translate(-2764.969 -843.533)" fill="#3a6060"/>
    </g>
    <g id="Grupo_825" data-name="Grupo 825" transform="translate(2749.702 848.648)">
      <path id="Trazado_1471" data-name="Trazado 1471" d="M2780.4,922.016h-27.788a2.918,2.918,0,0,1-2.915-2.915V877.948a2.918,2.918,0,0,1,2.915-2.915H2780.4a2.918,2.918,0,0,1,2.915,2.915V919.1A2.918,2.918,0,0,1,2780.4,922.016Zm-27.788-46.009a1.942,1.942,0,0,0-1.94,1.94V919.1a1.942,1.942,0,0,0,1.94,1.94H2780.4a1.942,1.942,0,0,0,1.94-1.94V877.948a1.942,1.942,0,0,0-1.94-1.94Z" transform="translate(-2749.702 -875.033)" fill="#3a6060"/>
    </g>
    <g id="Grupo_826" data-name="Grupo 826" transform="translate(2757.442 858.555)">
      <path id="Trazado_1472" data-name="Trazado 1472" d="M2806.75,954.8a9.381,9.381,0,1,1,9.381-9.381A9.392,9.392,0,0,1,2806.75,954.8Zm0-17.707a8.326,8.326,0,1,0,8.326,8.326A8.335,8.335,0,0,0,2806.75,937.1Z" transform="translate(-2797.369 -936.041)" fill="#3a6060"/>
    </g>
    <g id="Grupo_828" data-name="Grupo 828" transform="translate(2755.588 883.731)">
      <g id="Grupo_827" data-name="Grupo 827" transform="translate(0)">
        <path id="Trazado_1473" data-name="Trazado 1473" d="M2806.927,1092.055h-20.49a.487.487,0,1,1,0-.974h20.49a.487.487,0,0,1,0,.974Z" transform="translate(-2785.95 -1091.081)" fill="#3a6060"/>
      </g>
    </g>
    <g id="Grupo_830" data-name="Grupo 830" transform="translate(2760.334 886.625)">
      <g id="Grupo_829" data-name="Grupo 829" transform="translate(0)">
        <path id="Trazado_1474" data-name="Trazado 1474" d="M2826.661,1109.876h-11a.487.487,0,1,1,0-.974h11a.487.487,0,0,1,0,.974Z" transform="translate(-2815.177 -1108.902)" fill="#3a6060"/>
      </g>
    </g>
  </g>
</svg>
