<svg xmlns="http://www.w3.org/2000/svg" width="52.308" height="31.931" viewBox="0 0 52.308 31.931">
  <g id="Grupo_934" data-name="Grupo 934" transform="translate(-2922.343 -562.028)">
    <rect id="Rect치ngulo_2113" data-name="Rect치ngulo 2113" width="24.366" height="0.699" transform="translate(2943.773 578.402)" fill="#132630" stroke="#132630" stroke-width="1.5"/>
    <rect id="Rect치ngulo_2114" data-name="Rect치ngulo 2114" width="24.367" height="0.699" transform="translate(2943.835 584.916)" fill="#fff" stroke="#fff" stroke-width="1.5"/>
    <path id="Trazado_1509" data-name="Trazado 1509" d="M2994.778,592.991a.349.349,0,0,1-.349-.349v-22.6a6.541,6.541,0,0,0-13.081,0,.349.349,0,1,1-.7,0,7.017,7.017,0,0,1,2.27-5.427,7.725,7.725,0,0,1,9.938,0,7.017,7.017,0,0,1,2.27,5.427v22.6A.349.349,0,0,1,2994.778,592.991Z" transform="translate(-50.854 -0.021)" fill="#fff" stroke="#fff" stroke-width="1.5"/>
    <path id="Trazado_1510" data-name="Trazado 1510" d="M3203.062,592.786a.349.349,0,0,1-.349-.349V570.018a6.54,6.54,0,1,0-13.081,0,.349.349,0,0,1-.7,0,7.02,7.02,0,0,1,2.27-5.429,7.722,7.722,0,0,1,9.938,0,7.018,7.018,0,0,1,2.27,5.429v22.419A.349.349,0,0,1,3203.062,592.786Z" transform="translate(-234.885)" fill="#fff" stroke="#fff" stroke-width="1.5"/>
    <path id="Trazado_1511" data-name="Trazado 1511" d="M2973.551,798.142h-5.983a.35.35,0,0,1-.349-.36l0-.063c0-.037,0-.077,0-.114a2.186,2.186,0,1,0-4.373,0c0,.055,0,.114.007.166a.35.35,0,0,1-.348.372h-5.146a.349.349,0,0,1-.335-.252,1.9,1.9,0,0,0-1.814-1.368,1.868,1.868,0,0,0-1.809,1.367.35.35,0,0,1-.336.253h-.155a.35.35,0,0,1-.322-.212,1.212,1.212,0,0,0-2.221,0,.349.349,0,0,1-.321.212h-6.393a.349.349,0,0,1-.321-.211,2.109,2.109,0,0,0-3.876,0,.349.349,0,0,1-.321.211h-5.678a.35.35,0,0,1-.342-.28,1.506,1.506,0,0,0-2.674-.615.349.349,0,0,1-.614-.127,1.981,1.981,0,0,0-3.9.484c0,.055,0,.113,0,.164a.349.349,0,0,1-.348.373h-2.141a.349.349,0,1,1,0-.7h1.792a2.678,2.678,0,0,1,5.074-1.035,2.187,2.187,0,0,1,1.335-.452,2.216,2.216,0,0,1,2.086,1.488h5.193a2.808,2.808,0,0,1,4.956,0h5.959a1.913,1.913,0,0,1,3.107-.263,2.58,2.58,0,0,1,4.668.263h4.545a2.885,2.885,0,0,1,5.761,0h5.633a.349.349,0,1,1,0,.7Z" transform="translate(0 -204.933)" fill="#132630" stroke="#132630" stroke-width="1.5"/>
  </g>
</svg>
