<svg id="_300221" data-name="300221" xmlns="http://www.w3.org/2000/svg" width="28.437" height="28.438" viewBox="0 0 28.437 28.438">
  <path id="Trazado_511" data-name="Trazado 511" d="M279.658,211.48h-11.6a.927.927,0,0,0-.927.927v3.706a.927.927,0,0,0,.927.927h6.532a8.72,8.72,0,0,1-3.754,4.4l2.785,4.822a13.942,13.942,0,0,0,7.109-12.193,9.4,9.4,0,0,0-.16-1.821A.931.931,0,0,0,279.658,211.48Z" transform="translate(-252.294 -199.733)" fill="#fff"/>
  <path id="Trazado_512" data-name="Trazado 512" d="M46.718,338.178a8.653,8.653,0,0,1-7.486-4.331l-4.821,2.779a14.207,14.207,0,0,0,19.417,5.211v-.007l-2.785-4.822A8.59,8.59,0,0,1,46.718,338.178Z" transform="translate(-32.5 -315.304)" fill="#fff"/>
  <path id="Trazado_513" data-name="Trazado 513" d="M263.109,395.607V395.6l-2.785-4.822A8.59,8.59,0,0,1,256,391.948v5.564A14.2,14.2,0,0,0,263.109,395.607Z" transform="translate(-241.781 -369.074)" fill="#fff"/>
  <path id="Trazado_514" data-name="Trazado 514" d="M5.564,135.222A8.591,8.591,0,0,1,6.733,130.9l-4.821-2.779a14.154,14.154,0,0,0,0,14.206l4.821-2.779A8.591,8.591,0,0,1,5.564,135.222Z" transform="translate(0 -121.003)" fill="#fff"/>
  <path id="Trazado_515" data-name="Trazado 515" d="M46.718,5.564a8.615,8.615,0,0,1,5.495,1.973.924.924,0,0,0,1.243-.056l2.625-2.625a.934.934,0,0,0-.053-1.366A14.188,14.188,0,0,0,34.411,7.116l4.821,2.779A8.653,8.653,0,0,1,46.718,5.564Z" transform="translate(-32.5)" fill="#fff"/>
  <path id="Trazado_516" data-name="Trazado 516" d="M261.495,7.537a.924.924,0,0,0,1.243-.056l2.625-2.625a.934.934,0,0,0-.053-1.366A14.176,14.176,0,0,0,256,0V5.564A8.615,8.615,0,0,1,261.495,7.537Z" transform="translate(-241.781)" fill="#fff"/>
</svg>
