<svg xmlns="http://www.w3.org/2000/svg" width="28.939" height="51.76" viewBox="0 0 28.939 51.76">
  <g id="Pasport_and_ticket" data-name="Pasport and ticket" transform="translate(-3327.199 -820.615)">
    <g id="Grupo_832" data-name="Grupo 832" transform="translate(3330.177 859.347)">
      <path id="Trazado_1478" data-name="Trazado 1478" d="M3362.079,1116.64a2.24,2.24,0,0,1-.33-.024l-13.828-2.067a2.207,2.207,0,0,1-1.857-2.51l1.062-7.107a.969.969,0,0,1,.952-.82h16.654a.963.963,0,0,1,.952,1.105l-1.426,9.542a2.208,2.208,0,0,1-2.18,1.881Zm-14-11.718a.152.152,0,0,0-.151.13l-1.062,7.107a1.4,1.4,0,0,0,1.175,1.588l13.828,2.067a1.4,1.4,0,0,0,1.588-1.175l1.426-9.542a.152.152,0,0,0-.15-.175Z" transform="translate(-3346.04 -1104.112)" fill="#132630" stroke="#132630" stroke-width="1"/>
    </g>
    <g id="Grupo_835" data-name="Grupo 835" transform="translate(3331.55 834.408)">
      <g id="Grupo_834" data-name="Grupo 834" transform="translate(0 0)">
        <g id="Grupo_833" data-name="Grupo 833">
          <path id="Trazado_1479" data-name="Trazado 1479" d="M3372.708,920.309h-16.1a.405.405,0,1,1,0-.811h16.1a.405.405,0,0,1,0,.811Z" transform="translate(-3356.203 -919.498)" fill="#fff" stroke="#fff" stroke-width="1"/>
        </g>
      </g>
    </g>
    <g id="Grupo_838" data-name="Grupo 838" transform="translate(3331.55 838.534)">
      <g id="Grupo_837" data-name="Grupo 837" transform="translate(0 0)">
        <g id="Grupo_836" data-name="Grupo 836">
          <path id="Trazado_1480" data-name="Trazado 1480" d="M3372.708,950.85h-16.1a.405.405,0,1,1,0-.81h16.1a.405.405,0,0,1,0,.81Z" transform="translate(-3356.203 -950.039)" fill="#fff" stroke="#fff" stroke-width="1"/>
        </g>
      </g>
    </g>
    <g id="Grupo_841" data-name="Grupo 841" transform="translate(3331.55 834.408)">
      <g id="Grupo_840" data-name="Grupo 840" transform="translate(0 0)">
        <g id="Grupo_839" data-name="Grupo 839">
          <path id="Trazado_1481" data-name="Trazado 1481" d="M3357.013,919.9v4.126a.405.405,0,1,1-.811,0V919.9a.405.405,0,0,1,.811,0Z" transform="translate(-3356.203 -919.498)" fill="#fff" stroke="#fff" stroke-width="1"/>
        </g>
      </g>
    </g>
    <g id="Grupo_844" data-name="Grupo 844" transform="translate(3347.649 834.408)">
      <g id="Grupo_843" data-name="Grupo 843" transform="translate(0 0)">
        <g id="Grupo_842" data-name="Grupo 842">
          <path id="Trazado_1482" data-name="Trazado 1482" d="M3476.192,919.9v4.126a.405.405,0,1,1-.811,0V919.9a.405.405,0,0,1,.811,0Z" transform="translate(-3475.382 -919.498)" fill="#fff" stroke="#fff" stroke-width="1"/>
        </g>
      </g>
    </g>
    <g id="Grupo_847" data-name="Grupo 847" transform="translate(3330.89 846.316)">
      <g id="Grupo_846" data-name="Grupo 846">
        <g id="Grupo_845" data-name="Grupo 845">
          <path id="Trazado_1483" data-name="Trazado 1483" d="M3351.724,1007.651h4.126a.405.405,0,0,1,0,.811h-4.126a.405.405,0,0,1,0-.811Z" transform="translate(-3351.319 -1007.651)" fill="#fff" stroke="#fff" stroke-width="1"/>
        </g>
      </g>
    </g>
    <g id="Grupo_850" data-name="Grupo 850" transform="translate(3337.33 846.316)">
      <g id="Grupo_849" data-name="Grupo 849" transform="translate(0)">
        <g id="Grupo_848" data-name="Grupo 848">
          <path id="Trazado_1484" data-name="Trazado 1484" d="M3399.4,1007.651h4.126a.405.405,0,1,1,0,.811H3399.4a.405.405,0,0,1,0-.811Z" transform="translate(-3398.996 -1007.651)" fill="#fff" stroke="#fff" stroke-width="1"/>
        </g>
      </g>
    </g>
    <g id="Grupo_853" data-name="Grupo 853" transform="translate(3343.67 846.316)">
      <g id="Grupo_852" data-name="Grupo 852" transform="translate(0)">
        <g id="Grupo_851" data-name="Grupo 851">
          <path id="Trazado_1485" data-name="Trazado 1485" d="M3446.329,1007.651h4.125a.405.405,0,1,1,0,.811h-4.125a.405.405,0,1,1,0-.811Z" transform="translate(-3445.923 -1007.651)" fill="#fff" stroke="#fff" stroke-width="1"/>
        </g>
      </g>
    </g>
    <g id="Grupo_856" data-name="Grupo 856" transform="translate(3330.89 849.328)">
      <g id="Grupo_855" data-name="Grupo 855">
        <g id="Grupo_854" data-name="Grupo 854">
          <path id="Trazado_1486" data-name="Trazado 1486" d="M3351.724,1029.942h4.126a.405.405,0,1,1,0,.81h-4.126a.405.405,0,1,1,0-.81Z" transform="translate(-3351.319 -1029.942)" fill="#fff" stroke="#fff" stroke-width="1"/>
        </g>
      </g>
    </g>
    <g id="Grupo_859" data-name="Grupo 859" transform="translate(3337.33 849.328)">
      <g id="Grupo_858" data-name="Grupo 858" transform="translate(0)">
        <g id="Grupo_857" data-name="Grupo 857">
          <path id="Trazado_1487" data-name="Trazado 1487" d="M3399.4,1029.942h4.126a.405.405,0,1,1,0,.81H3399.4a.405.405,0,0,1,0-.81Z" transform="translate(-3398.996 -1029.942)" fill="#fff" stroke="#fff" stroke-width="1"/>
        </g>
      </g>
    </g>
    <g id="Grupo_862" data-name="Grupo 862" transform="translate(3343.67 849.328)">
      <g id="Grupo_861" data-name="Grupo 861" transform="translate(0)">
        <g id="Grupo_860" data-name="Grupo 860">
          <path id="Trazado_1488" data-name="Trazado 1488" d="M3446.329,1029.942h4.125a.405.405,0,1,1,0,.81h-4.125a.405.405,0,1,1,0-.81Z" transform="translate(-3445.923 -1029.942)" fill="#fff" stroke="#fff" stroke-width="1"/>
        </g>
      </g>
    </g>
    <g id="Grupo_865" data-name="Grupo 865" transform="translate(3330.89 852.167)">
      <g id="Grupo_864" data-name="Grupo 864" transform="translate(0 0)">
        <g id="Grupo_863" data-name="Grupo 863">
          <path id="Trazado_1489" data-name="Trazado 1489" d="M3351.724,1050.965h4.126a.405.405,0,1,1,0,.81h-4.126a.405.405,0,1,1,0-.81Z" transform="translate(-3351.319 -1050.965)" fill="#fff" stroke="#fff" stroke-width="1"/>
        </g>
      </g>
    </g>
    <g id="Grupo_868" data-name="Grupo 868" transform="translate(3337.33 852.167)">
      <g id="Grupo_867" data-name="Grupo 867" transform="translate(0 0)">
        <g id="Grupo_866" data-name="Grupo 866">
          <path id="Trazado_1490" data-name="Trazado 1490" d="M3399.4,1050.965h4.126a.405.405,0,1,1,0,.81H3399.4a.405.405,0,0,1,0-.81Z" transform="translate(-3398.996 -1050.965)" fill="#fff" stroke="#fff" stroke-width="1"/>
        </g>
      </g>
    </g>
    <g id="Grupo_871" data-name="Grupo 871" transform="translate(3343.67 852.167)">
      <g id="Grupo_870" data-name="Grupo 870" transform="translate(0 0)">
        <g id="Grupo_869" data-name="Grupo 869">
          <path id="Trazado_1491" data-name="Trazado 1491" d="M3446.329,1050.965h4.125a.405.405,0,1,1,0,.81h-4.125a.405.405,0,1,1,0-.81Z" transform="translate(-3445.923 -1050.965)" fill="#fff" stroke="#fff" stroke-width="1"/>
        </g>
      </g>
    </g>
    <g id="Grupo_874" data-name="Grupo 874" transform="translate(3330.89 854.957)">
      <g id="Grupo_873" data-name="Grupo 873" transform="translate(0 0)">
        <g id="Grupo_872" data-name="Grupo 872">
          <path id="Trazado_1492" data-name="Trazado 1492" d="M3351.724,1071.613h4.126a.405.405,0,0,1,0,.811h-4.126a.405.405,0,0,1,0-.811Z" transform="translate(-3351.319 -1071.613)" fill="#fff" stroke="#fff" stroke-width="1"/>
        </g>
      </g>
    </g>
    <g id="Grupo_877" data-name="Grupo 877" transform="translate(3337.33 854.957)">
      <g id="Grupo_876" data-name="Grupo 876" transform="translate(0 0)">
        <g id="Grupo_875" data-name="Grupo 875">
          <path id="Trazado_1493" data-name="Trazado 1493" d="M3399.4,1071.613h4.126a.405.405,0,1,1,0,.811H3399.4a.405.405,0,0,1,0-.811Z" transform="translate(-3398.996 -1071.613)" fill="#fff" stroke="#fff" stroke-width="1"/>
        </g>
      </g>
    </g>
    <g id="Grupo_880" data-name="Grupo 880" transform="translate(3343.67 854.957)">
      <g id="Grupo_879" data-name="Grupo 879" transform="translate(0 0)">
        <g id="Grupo_878" data-name="Grupo 878">
          <path id="Trazado_1494" data-name="Trazado 1494" d="M3446.329,1071.613h4.125a.405.405,0,1,1,0,.811h-4.125a.405.405,0,1,1,0-.811Z" transform="translate(-3445.923 -1071.613)" fill="#fff" stroke="#fff" stroke-width="1"/>
        </g>
      </g>
    </g>
    <g id="Grupo_881" data-name="Grupo 881" transform="translate(3331.877 865.697)">
      <path id="Trazado_1495" data-name="Trazado 1495" d="M3360.513,1152.156a.434.434,0,0,1-.062,0l-1.476-.226a.405.405,0,1,1,.123-.8l1.476.227a.405.405,0,0,1-.061.806Z" transform="translate(-3358.631 -1151.119)" fill="#fff" stroke="#fff" stroke-width="1"/>
    </g>
    <g id="Grupo_882" data-name="Grupo 882" transform="translate(3335.178 866.203)">
      <path id="Trazado_1496" data-name="Trazado 1496" d="M3384.948,1155.9a.408.408,0,0,1-.062,0l-1.477-.226a.405.405,0,0,1,.123-.8l1.477.226a.405.405,0,0,1-.061.806Z" transform="translate(-3383.065 -1154.867)" fill="#fff" stroke="#fff" stroke-width="1"/>
    </g>
    <g id="Grupo_883" data-name="Grupo 883" transform="translate(3338.48 866.709)">
      <path id="Trazado_1497" data-name="Trazado 1497" d="M3409.385,1159.651a.429.429,0,0,1-.062,0l-1.476-.227a.405.405,0,0,1,.123-.8l1.476.227a.405.405,0,0,1-.061.806Z" transform="translate(-3407.503 -1158.614)" fill="#fff" stroke="#fff" stroke-width="1"/>
    </g>
    <g id="Grupo_884" data-name="Grupo 884" transform="translate(3341.78 867.216)">
      <path id="Trazado_1498" data-name="Trazado 1498" d="M3433.821,1163.4a.406.406,0,0,1-.062,0l-1.477-.226a.405.405,0,0,1,.123-.8l1.477.226a.405.405,0,0,1-.061.806Z" transform="translate(-3431.938 -1162.361)" fill="#fff" stroke="#fff" stroke-width="1"/>
    </g>
    <g id="Grupo_885" data-name="Grupo 885" transform="translate(3345.081 867.722)">
      <path id="Trazado_1499" data-name="Trazado 1499" d="M3458.256,1167.145a.415.415,0,0,1-.062,0l-1.476-.226a.405.405,0,1,1,.123-.8l1.476.226a.405.405,0,0,1-.061.806Z" transform="translate(-3456.374 -1166.108)" fill="#fff" stroke="#fff" stroke-width="1"/>
    </g>
    <path id="Trazado_1500" data-name="Trazado 1500" d="M3349.589,861.645h-3.656v.811h3.656a1.4,1.4,0,0,1,1.4,1.4V893a1.4,1.4,0,0,1-1.4,1.4h-19.682a1.4,1.4,0,0,1-1.4-1.4v-29.15a1.4,1.4,0,0,1,1.4-1.4h3.82v-.811h-3.82a2.21,2.21,0,0,0-2.208,2.207V893a2.21,2.21,0,0,0,2.208,2.207h19.682A2.21,2.21,0,0,0,3351.8,893v-29.15A2.21,2.21,0,0,0,3349.589,861.645Z" transform="translate(0 -35.052)" fill="#fff" stroke="#fff" stroke-width="1"/>
    <g id="Grupo_888" data-name="Grupo 888" transform="translate(3331.752 830.219)">
      <g id="Grupo_887" data-name="Grupo 887" transform="translate(0)">
        <g id="Grupo_886" data-name="Grupo 886">
          <path id="Trazado_1501" data-name="Trazado 1501" d="M3373.8,889.3h-15.694a.405.405,0,0,1,0-.81H3373.8a.405.405,0,1,1,0,.81Z" transform="translate(-3357.703 -888.489)" fill="#fff" stroke="#fff" stroke-width="1"/>
        </g>
      </g>
    </g>
    <path id="Trazado_1502" data-name="Trazado 1502" d="M3414,823.21l-13.828-2.067a2.21,2.21,0,0,0-2.509,1.857l-.287,1.92.354.378.468-.4.266-1.781a1.4,1.4,0,0,1,1.588-1.175l13.828,2.067a1.4,1.4,0,0,1,1.175,1.588l-2.957,19.777a.146.146,0,0,1-.037.078V828.8a2.21,2.21,0,0,0-2.208-2.207h-3.656v.81h3.656a1.4,1.4,0,0,1,1.4,1.4v17.025a.405.405,0,0,0,.192.344.949.949,0,0,0,.433.143l.072,0a.968.968,0,0,0,.952-.82l2.956-19.777A2.21,2.21,0,0,0,3414,823.21Z" transform="translate(-60.261)" fill="#132630" stroke="#132630" stroke-width="1"/>
    <path id="Trazado_1503" data-name="Trazado 1503" d="M3381.8,847.4a.414.414,0,0,1-.423-.405V841.24l-.986.679a.438.438,0,0,1-.509-.011l-1.241-.939-1.281,1.01a.438.438,0,0,1-.5.026l-1.685-1.052-1.256,1.022a.436.436,0,0,1-.582-.031l-.9-.913-.885.846a.437.437,0,0,1-.56.032l-.831-.625v5.71a.423.423,0,0,1-.846,0v-6.544a.4.4,0,0,1,.238-.364.438.438,0,0,1,.447.046l1.22.919.928-.887a.413.413,0,0,1,.306-.118.433.433,0,0,1,.3.128l.918.936,1.191-.968a.437.437,0,0,1,.5-.031l1.688,1.055,1.305-1.028a.438.438,0,0,1,.531-.005l1.258.952,1.4-.963a.438.438,0,0,1,.44-.032.4.4,0,0,1,.23.361v6.544A.415.415,0,0,1,3381.8,847.4Z" transform="translate(-35.999 -16.369)" fill="#fff" stroke="#fff" stroke-width="1"/>
  </g>
</svg>
