<svg xmlns="http://www.w3.org/2000/svg" width="63.728" height="46.118" viewBox="0 0 63.728 46.118">
  <g id="Grupo_906" data-name="Grupo 906" transform="translate(-2777.933 -1643.667)">
    <g id="Grupo_910" data-name="Grupo 910" transform="translate(2777.933 1643.667)">
      <g id="Grupo_906-2" data-name="Grupo 906" transform="translate(30.765 11.653)">
        <path id="Trazado_1539" data-name="Trazado 1539" d="M2971.492,1730.5h-31.817a.573.573,0,1,1,0-1.145h31.245v-23.5h-4.289a.573.573,0,0,1,0-1.145h4.861a.573.573,0,0,1,.573.573v24.646A.573.573,0,0,1,2971.492,1730.5Z" transform="translate(-2939.102 -1704.712)" fill="#3a6060"/>
      </g>
      <g id="Grupo_907" data-name="Grupo 907" transform="translate(31.839 8.808)">
        <path id="Trazado_1540" data-name="Trazado 1540" d="M2969.759,1715.6H2945.3a.573.573,0,1,1,0-1.145h23.886v-23.5h-23.579a.573.573,0,1,1,0-1.145h24.151a.573.573,0,0,1,.573.573v24.643A.573.573,0,0,1,2969.759,1715.6Z" transform="translate(-2944.728 -1689.808)" fill="#3a6060"/>
      </g>
      <path id="Trazado_1541" data-name="Trazado 1541" d="M2864.625,1808.406h-13.458a.577.577,0,0,1-.578-.573v-6.313a.573.573,0,0,1,.573-.573h13.4a4.258,4.258,0,0,1,3.158,1.154,3.646,3.646,0,0,1,0,5.153A4.234,4.234,0,0,1,2864.625,1808.406Zm-12.891-1.146h12.824a3.226,3.226,0,0,0,2.351-.821,2.5,2.5,0,0,0,0-3.524,3.2,3.2,0,0,0-2.346-.823h-12.831Z" transform="translate(-2836.72 -1770.923)" fill="#3a6060"/>
      <path id="Trazado_1542" data-name="Trazado 1542" d="M2809.448,1691.483a.585.585,0,0,1-.587-.566,2.491,2.491,0,0,0-.742-1.774,3.045,3.045,0,0,0-2.209-.775h-23.222a4.543,4.543,0,0,1-4.726-4.322v-23.011a.573.573,0,1,1,1.145,0v23.011a3.4,3.4,0,0,0,3.581,3.176H2805.9a4.117,4.117,0,0,1,2.972,1.059v-23.5a3.41,3.41,0,0,0-3.6-3.174h-19.719a.573.573,0,1,1,0-1.145h19.719a4.551,4.551,0,0,1,4.744,4.319v26.129A.572.572,0,0,1,2809.448,1691.483Zm0-.573h0Z" transform="translate(-2777.957 -1657.256)" fill="#3a6060"/>
      <g id="Grupo_908" data-name="Grupo 908" transform="translate(32.235 14.222)">
        <path id="Trazado_1543" data-name="Trazado 1543" d="M2960.163,1719.318h-12.791a.573.573,0,0,1,0-1.145h12.791a.573.573,0,1,1,0,1.145Z" transform="translate(-2946.8 -1718.173)" fill="#3a6060"/>
        <path id="Trazado_1544" data-name="Trazado 1544" d="M2967.194,1749.974h0l-18.679-.141a.573.573,0,0,1,0-1.145h0l18.679.141a.573.573,0,0,1,0,1.145Z" transform="translate(-2947.724 -1742.862)" fill="#3a6060"/>
        <path id="Trazado_1545" data-name="Trazado 1545" d="M3031.283,1784.966h-5.556a.573.573,0,0,1,0-1.145h5.556a.573.573,0,1,1,0,1.145Z" transform="translate(-3010.198 -1771.29)" fill="#3a6060"/>
      </g>
      <g id="Grupo_909" data-name="Grupo 909" transform="translate(0 0)">
        <path id="Trazado_1546" data-name="Trazado 1546" d="M2785.53,1670.832a.573.573,0,0,1-.573-.573,2.952,2.952,0,0,0-5.878,0,.573.573,0,1,1-1.145,0v-22.744a3.548,3.548,0,0,1,1.792-3.248,4.673,4.673,0,0,1,4.583,0,3.551,3.551,0,0,1,1.792,3.257v22.735A.572.572,0,0,1,2785.53,1670.832Zm-3.512-26.018a3.424,3.424,0,0,0-1.714.442,2.413,2.413,0,0,0-1.225,2.25v20.022a4.539,4.539,0,0,1,5.878,0v-20.013a2.42,2.42,0,0,0-1.225-2.259A3.422,3.422,0,0,0,2782.018,1644.814Z" transform="translate(-2777.934 -1643.667)" fill="#3a6060"/>
      </g>
    </g>
    <path id="Trazado_1547" data-name="Trazado 1547" d="M2902.541,1855.031h-26.259a1.723,1.723,0,0,1-1.721-1.721v-3.691a1.723,1.723,0,0,1,1.721-1.721h26.259a1.723,1.723,0,0,1,1.72,1.721v3.691A1.723,1.723,0,0,1,2902.541,1855.031Zm-26.259-5.988a.576.576,0,0,0-.576.575v3.691a.576.576,0,0,0,.576.575h26.259a.576.576,0,0,0,.575-.575v-3.691a.576.576,0,0,0-.575-.575Z" transform="translate(-78.183 -165.246)" fill="#3a6060"/>
    <path id="Trazado_1548" data-name="Trazado 1548" d="M3029.736,1860.235h-3.581a.573.573,0,0,1-.573-.573V1856.9a.573.573,0,0,1,.573-.573h3.581a.573.573,0,0,1,.573.573v2.766A.572.572,0,0,1,3029.736,1860.235Zm-3.008-1.145h2.436v-1.62h-2.436Z" transform="translate(-200.375 -172.063)" fill="#3a6060"/>
    <g id="Grupo_911" data-name="Grupo 911" transform="translate(2791.542 1683.862)">
      <path id="Trazado_1549" data-name="Trazado 1549" d="M2854.476,1858.945h-2.9a2.279,2.279,0,0,1-2.353-2.354,2.407,2.407,0,0,1,.589-1.6,2.269,2.269,0,0,1,1.763-.749h2.9a.572.572,0,0,1,.572.573v3.562A.572.572,0,0,1,2854.476,1858.945Zm-2.9-3.562a1.208,1.208,0,0,0,0,2.417h2.322v-2.417Z" transform="translate(-2849.228 -1854.238)" fill="#3a6060"/>
    </g>
    <g id="Grupo_912" data-name="Grupo 912" transform="translate(2788.014 1685.456)">
      <path id="Trazado_1550" data-name="Trazado 1550" d="M2830.744,1863.351l3.438-.745a.762.762,0,0,1,.323,1.49.812.812,0,0,1-.323,0Z" transform="translate(-2830.744 -1862.588)" fill="#3a6060"/>
    </g>
  </g>
</svg>
