<svg xmlns="http://www.w3.org/2000/svg" width="68.078" height="51.892" viewBox="0 0 68.078 51.892">
  <g id="Grupo_889" data-name="Grupo 889" transform="translate(-2667.537 -1766.534) rotate(13)">
    <path id="Trazado_1504" data-name="Trazado 1504" d="M3056.012,1129.75a110.769,110.769,0,0,1-7.29-10.78c1.686.375,4.994,1.067,8.481,1.566,2.807.4,5.684.56,8.466.715,8.471.471,16.473.915,23.4,7.556,4.455,4.3,7.5,15.64,9.041,22.809h0l2.113,6.413a.5.5,0,0,0,.073-.346c-.143-.933-3.587-22.917-10.525-29.6h0c-7.193-6.9-15.757-7.377-24.04-7.837-2.76-.153-5.615-.312-8.378-.706-4.93-.705-9.5-1.8-9.547-1.813a.506.506,0,0,0-.554.75,116.931,116.931,0,0,0,7.61,11.436Z" transform="translate(-34.835)" fill="#3a6060" stroke="#3a6060" stroke-width="0.25"/>
    <path id="Trazado_1505" data-name="Trazado 1505" d="M3065.461,1206.728a.506.506,0,0,1-.417-.22,62.967,62.967,0,0,0-18.08-17.1c-6.569-4.027-12.167-5.474-16.67-5.649a35.224,35.224,0,0,1,12.417,4.294,66.179,66.179,0,0,1,15.131,12.146.506.506,0,0,1-.314.856c-11.554,1.113-19.771.271-27.479-2.816-7.852-3.144-15.449-8.836-24.635-18.456a.506.506,0,0,1,.371-.855c.047,0,4.749.039,9.71-.385,2.782-.238,5.6-.727,8.323-1.2,8.173-1.418,16.624-2.885,25.187,2.218h0c8.266,4.952,16.576,25.6,16.925,26.472a.506.506,0,0,1-.469.694Zm-36.091-24.014c13.168,0,26.4,10.549,33.943,19.809-2.869-6.348-8.976-18.585-14.827-22.092h0c-8.241-4.911-16.137-3.541-24.5-2.09-2.745.476-5.583.969-8.409,1.211-3.509.3-6.888.37-8.616.385,8.714,8.995,15.983,14.368,23.46,17.363,7.312,2.928,15.12,3.791,25.947,2.845-7.668-7.751-19.275-17.287-33.683-15.408a.506.506,0,0,1-.217-.984A22.923,22.923,0,0,1,3029.371,1182.714Z" transform="translate(0 -48.462)" fill="#3a6060" stroke="#3a6060" stroke-width="0.25"/>
  </g>
</svg>
